<svg xmlns="http://www.w3.org/2000/svg" width="551.835" height="559.348" viewBox="0 0 551.835 559.348">
    <path fill="#d19718" d="m441.988 232.688 6.23 10.19c4.22 6.25 8.36 13.83 11.55 18.91q28.09 44.79 57.58 92.77 2.8 4.56 3.84 6.64c2.44 4.9 2.8 11.46-1.59 15.34q-8 7.06-15.75 12.01c-23.5 15.04-47.8 28.18-73.98 38.29q-18.84 7.27-31.1 10.86c-16.62 4.88-31.28 8.56-48.17 10.42l-11.72.64-128.95.18q-5.8-.79-11.87-.04-2.97.03-5.84.04-35.74.06-72.42.06c-22.35 0-41.08.55-64.34.5-17.84-.04-34.15-8.93-41.02-25.5-4.95-11.94-3.37-25.44 2.17-37.98q.83-1.87 8.39-14.1 7.77-12.57 34.14-55.37 17.06-27.68 34.5-56.25 4.83-7.92 9.75-15.82a1.42 1.4 60 0 0 .2-.76l-.03-.8q.45.09.86-.5 3.19-4.62 5.96-9.54 5.7-9.43 11.52-18.81 5.68-9.16 11.24-18.42c8.13-13.54 16.79-26.89 23.47-38.3 9.72-16.61 18.55-30.26 29.58-48.71q8.48-14.18 12.95-21.06c6.11-9.41 11.12-18.5 17.13-28.14q11.29-18.12 25.05-40.89 4.92-8.15 14.4-13.37 14.01-7.72 29.38-3.93 9.56 2.36 17.37 9.59 4.78 4.42 12.02 16.04c17.1 27.44 34.02 55 57.5 92.79q1.12 1.79 5.97 9.61 32.86 53.05 61.56 99.54.14.24 1.11 2.02.65 1.2 1.36 1.85m-127.16 207.13q5.84 2.06 10.75 2.25c14.61.57 30.76-.8 45.55-4.31 16.05-3.8 33.79-9.56 48.51-14.91q4.37-1.59 6.55-2.51c5.65-2.39 10.81-3.62 16.37-6.18 10.52-4.86 18.73-8.16 27.61-13.34 3.77-2.21 9.12-4.9 13.49-8q2.41-1.7 4.16-2.67c8.35-4.58 16.46-8.7 23.26-14.85q2.76-2.49 4.11-5.24a1.5 1.5 0 0 0 .1-1.1q-.94-3.15-3.38-3.15-9.52-14.75-18-28.88-1.82-3.03-5.43-8.43c-4.24-6.32-7.93-13.36-12.67-20.22q-4.33-6.28-6.02-9.26c-2.77-4.88-6.69-12.36-11.16-18.32q-1.86-2.48-4.09-6.63-4.41-8.19-10.56-17.14c-1.15-1.68-2.76-5.24-4.27-7.43q-3.71-5.34-5.42-8.76-2.58-5.12-5.32-8.87-4.71-6.46-9.74-15.15-5.6-9.68-8.57-14.01c-5.83-8.51-10.57-17.92-16.49-26.39q-1.44-2.07-5.73-9.37-3.57-6.09-9.29-14.8c-4.31-6.57-7.63-12.99-11.65-18.65-3.07-4.31-4.93-8.78-7.72-12.38q-2.15-2.78-5.72-9.45-2.25-4.21-5.84-9.5c-4.69-6.93-9.19-15.06-13-21.58-2.08-3.56-4.56-6.8-6.45-10.2q-2.03-3.65-4.73-7.75-6.96-10.55-17.23-26.97-3.78-6.06-7.08-12.19a5.02 5.12 9.5 0 0-.67-.96q-8.05-8.94-19.29-10.86-3.91-.66-7.28-.27c-8.71 1.01-13.99 4.26-20.88 11.11-2.27 2.27-3.39 5.24-5.28 7.89q-1.43 1.99-3.64 6.15c-3.4 6.38-8.24 13.03-11.56 18.93-7.99 14.21-15.15 23.98-22.96 37.65q-4.13 7.25-10.2 16.48c-3.38 5.15-6.02 10.41-9.51 15.8-7.16 11.09-15.05 25.02-20.59 33.57-3.89 5.99-6.48 11.55-10.7 17.71-5.13 7.49-10.89 18.14-14.94 24.55q-13.54 21.47-29.63 48.38-14.89 24.88-24.53 39.45c-1.62 2.45-3.47 6.38-5.21 9.13q-7.81 12.37-14.75 24.22-2.59 4.41-7.06 11.37c-7.1 11.05-12.81 21-19.37 31.41-4.75 7.52-9.24 15.84-13.1 21.72-6.34 9.65-8.83 19.01-5.66 29.74 3.82 12.95 15.56 22.03 28.81 23.87q2.38.33 6.96.12c6.85-.33 10.37-.07 17.69-.15q5.56-.05 10.72.09c16.77.48 33.78.21 49.62.04q17.52-.18 36.51.08 17.08.22 66.99-.4 14.94-.19 57.46.47c5.86.09 11.43-.37 17.15-.95"/>
    <path fill="#fed431" d="M511.908 365.808q-6.6-.39-13.82-2.75-17.21-5.61-25.79-9.21-9.52-3.99-24.24-9.52c-3.43-1.29-7.54-2.34-11.85-3.59-7.16-2.07-14.11-2.47-20.88.52-6.86 3.03-14.13 14.49-16.97 20.82q-8.91 19.86-15.19 32.05c-11.3 21.94-30.33 36.07-54.05 42.47q-4.9 1.32-14.29 3.22c-5.72.58-11.29 1.04-17.15.95q-42.52-.66-57.46-.47-49.91.62-66.99.4-18.99-.26-36.51-.08c-15.84.17-32.85.44-49.62-.04q-5.16-.14-10.72-.09c-7.32.08-10.84-.18-17.69.15q-4.58.21-6.96-.12c-13.25-1.84-24.99-10.92-28.81-23.87-3.17-10.73-.68-20.09 5.66-29.74 3.86-5.88 8.35-14.2 13.1-21.72 6.56-10.41 12.27-20.36 19.37-31.41q4.47-6.96 7.06-11.37 6.94-11.85 14.75-24.22c1.74-2.75 3.59-6.68 5.21-9.13q9.64-14.57 24.53-39.45 16.09-26.91 29.63-48.38c4.05-6.41 9.81-17.06 14.94-24.55 4.22-6.16 6.81-11.72 10.7-17.71 5.54-8.55 13.43-22.48 20.59-33.57 3.49-5.39 6.13-10.65 9.51-15.8q6.07-9.23 10.2-16.48c7.81-13.67 14.97-23.44 22.96-37.65 3.32-5.9 8.16-12.55 11.56-18.93q2.21-4.16 3.64-6.15c1.89-2.65 3.01-5.62 5.28-7.89 6.89-6.85 12.17-10.1 20.88-11.11q3.37-.39 7.28.27 11.24 1.92 19.29 10.86a5.02 5.12 9.5 0 1 .67.96q3.3 6.13 7.08 12.19 10.27 16.42 17.23 26.97 2.7 4.1 4.73 7.75c1.89 3.4 4.37 6.64 6.45 10.2 3.81 6.52 8.31 14.65 13 21.58q3.59 5.29 5.84 9.5 3.57 6.67 5.72 9.45c2.79 3.6 4.65 8.07 7.72 12.38 4.02 5.66 7.34 12.08 11.65 18.65q5.72 8.71 9.29 14.8 4.29 7.3 5.73 9.37c5.92 8.47 10.66 17.88 16.49 26.39q2.97 4.33 8.57 14.01 5.03 8.69 9.74 15.15 2.74 3.75 5.32 8.87 1.71 3.42 5.42 8.76c1.51 2.19 3.12 5.75 4.27 7.43q6.15 8.95 10.56 17.14 2.23 4.15 4.09 6.63c4.47 5.96 8.39 13.44 11.16 18.32q1.69 2.98 6.02 9.26c4.74 6.86 8.43 13.9 12.67 20.22q3.61 5.4 5.43 8.43 8.48 14.13 18 28.88M206.564 192.084a25.75 25.47 84.8 0 0-23.031 27.952 25.75 25.47 84.8 0 0 27.699 23.336 25.75 25.47 84.8 0 0 23.031-27.952 25.75 25.47 84.8 0 0-27.699-23.336m161.294 25.694a25.63 25.63 0 0 0-25.63-25.63 25.63 25.63 0 0 0-25.63 25.63 25.63 25.63 0 0 0 25.63 25.63 25.63 25.63 0 0 0 25.63-25.63m-119.62 30.41q-2.5.14-3.8 1.8c-4.23 5.36.01 12.27 4.08 16.4q14.8 14.97 36.86 11.04 10.22-1.82 17.79-9.26c3.44-3.38 8.47-10.47 6.9-15.43-1.37-4.36-5.71-5.69-9.4-3.4q-1.07.66-2.22 4.14-1.96 5.95-8.96 9.28-11.31 5.39-22.77.95-8.72-3.38-11.46-10.04c-1.55-3.77-3.21-5.69-7.02-5.48"/>
    <path fill="#5b4237" d="m448.218 242.878-6.23-10.19c32.56-12.99 50.36-44.26 59.85-76.2a1.05 1.05 0 0 0-.32-1.09q-5.64-4.87-11.18-10.77c-2.8-3-6.22-6.87-6.12-11.13q.12-4.78 4.71-5.55c7.06-1.18 10.47 4.8 13.94 9.95a.67.67 0 0 0 1.22-.3c.91-7.38.7-15.42 4.23-22 2.33-4.33 8.21-5.46 11.1-.85 2.22 3.56 1.84 6.58 1.87 11.05a.57.56 65.4 0 0 .99.37q4.96-5.67 11.22-7.57c2.93-.89 6.99.01 7.51 3.88.8 5.93-3.04 10.52-6.6 15.03a.67.67 0 0 0 .59 1.08c2.96-.29 9.11-1.39 12.97-.19 4.82 1.51 4.82 6.8 1.73 10.01q-2.33 2.42-6.56 3.95c-8.35 3.04-17.85 4.28-27.05 5.66-2.14.33-3.03 1.16-3.72 3.34q-7.64 24.11-16.85 38.9-1.83 2.94-7.29 10.5-4.09 5.68-8.05 9.89-13.53 14.42-31.96 22.23m-337.84-10q-2.77 4.92-5.96 9.54-.41.59-.86.5-22.3-10.07-36.78-28.02-16.03-19.9-24.22-44.77-1.77-5.35-3.33-10.75a1.36 1.36 0 0 0-.97-.93c-1.52-.39-4.19-1.02-6.08-1.24q-8.6-.99-16.05-2.74c-5.2-1.22-11.85-3.03-14.76-7.25-3.26-4.75-.35-9.08 5.11-9.21q4.85-.11 10.97.49a.59.59 0 0 0 .52-.96q-3.25-4.11-4.74-6.32c-2.92-4.33-4.51-13.54 3.79-12.88 5.12.42 9.34 4.37 12.86 7.7a.56.56 0 0 0 .94-.39c.14-4.59.1-12.89 5.93-13.7 10.79-1.5 10.3 19.17 11.3 25.4a.6.6 0 0 0 1.07.27c3.58-4.61 9.07-12.61 15.91-9.07 2.88 1.49 3.04 5.72 2.11 8.38q-.9 2.59-3.97 6.23-5.09 6.02-12.22 12.32a1.31 1.32 61.4 0 0-.4 1.35c6.94 24.85 19.23 46.97 39.1 63.93q9.18 7.83 20.73 12.12m96.186-40.794a25.75 25.47 84.8 0 1 27.699 23.336 25.75 25.47 84.8 0 1-23.031 27.952 25.75 25.47 84.8 0 1-27.7-23.336 25.75 25.47 84.8 0 1 23.032-27.952m3.532 13.381a6.87 6.72 24.9 0 0 3.402 8.988 6.87 6.72 24.9 0 0 9.061-3.203 6.87 6.72 24.9 0 0-3.402-8.987 6.87 6.72 24.9 0 0-9.06 3.202m157.761 12.313a25.63 25.63 0 0 1-25.63 25.63 25.63 25.63 0 0 1-25.63-25.63 25.63 25.63 0 0 1 25.63-25.63 25.63 25.63 0 0 1 25.63 25.63m-11.33-9.47a6.78 6.78 0 0 0-6.78-6.78 6.78 6.78 0 0 0-6.78 6.78 6.78 6.78 0 0 0 6.78 6.78 6.78 6.78 0 0 0 6.78-6.78"/>
    <ellipse cx="-283.945" cy="-97.908" fill="#fef8f5" rx="6.87" ry="6.72" transform="rotate(-155.1)"/>
    <circle cx="349.748" cy="208.308" r="6.78" fill="#fef8f5"/>
    <path fill="#5b4237" d="M248.238 248.188c3.81-.21 5.47 1.71 7.02 5.48q2.74 6.66 11.46 10.04 11.46 4.44 22.77-.95 7-3.33 8.96-9.28 1.15-3.48 2.22-4.14c3.69-2.29 8.03-.96 9.4 3.4 1.57 4.96-3.46 12.05-6.9 15.43q-7.57 7.44-17.79 9.26-22.06 3.93-36.86-11.04c-4.07-4.13-8.31-11.04-4.08-16.4q1.3-1.66 3.8-1.8"/>
    <path fill="#ebb00b" d="M511.908 365.808q2.44 0 3.38 3.15a1.5 1.5 0 0 1-.1 1.1q-1.35 2.75-4.11 5.24c-6.8 6.15-14.91 10.27-23.26 14.85q-1.75.97-4.16 2.67c-4.37 3.1-9.72 5.79-13.49 8-8.88 5.18-17.09 8.48-27.61 13.34-5.56 2.56-10.72 3.79-16.37 6.18q-2.18.92-6.55 2.51c-14.72 5.35-32.46 11.11-48.51 14.91-14.79 3.51-30.94 4.88-45.55 4.31q-4.91-.19-10.75-2.25 9.39-1.9 14.29-3.22c23.72-6.4 42.75-20.53 54.05-42.47q6.28-12.19 15.19-32.05c2.84-6.33 10.11-17.79 16.97-20.82 6.77-2.99 13.72-2.59 20.88-.52 4.31 1.25 8.42 2.3 11.85 3.59q14.72 5.53 24.24 9.52 8.58 3.6 25.79 9.21 7.22 2.36 13.82 2.75"/>
    <path fill="#5b4237" d="M350.598 448.118q3.56 45.24-4.59 89.98a.87.87 0 0 0 .78 1.02q15.73 1.17 30.25 7.93 3.31 1.55 4.28 4.39c2.22 6.53-3.92 7.94-8.97 7.91q-18.25-.13-35.2-5.25c-5.24-1.59-5.52-5.2-4.25-10.27q3.5-13.87 5.24-33.14 2.92-32.19.74-61.93zm-140.67.82q-2.86 39.52 2.9 78.2.43 2.86 3.92 19.31 1.24 5.85-4.91 7.74-15.1 4.63-31.81 5.13c-3.18.1-10.48.07-11.97-3.22-2.85-6.26 4.73-9.96 9.67-11.68q12.06-4.2 25.3-5.33a.37.37 0 0 0 .33-.43q-4.4-22.6-5.69-45.46-1.06-18.7.39-44.3 6.07-.75 11.87.04"/>
</svg>
