<?xml version="1.0" encoding="UTF-8" standalone="no"?>
<svg
   version="1.1"
   viewBox="0 0 551.83483 559.34844"
   id="svg31"
   sodipodi:docname="happpy delta.svg"
   width="551.83484"
   height="559.34845"
   inkscape:version="1.3 (0e150ed, 2023-07-21)"
   xmlns:inkscape="http://www.inkscape.org/namespaces/inkscape"
   xmlns:sodipodi="http://sodipodi.sourceforge.net/DTD/sodipodi-0.dtd"
   xmlns="http://www.w3.org/2000/svg"
   xmlns:svg="http://www.w3.org/2000/svg">
  <defs
     id="defs31" />
  <sodipodi:namedview
     id="namedview31"
     pagecolor="#ffffff"
     bordercolor="#000000"
     borderopacity="0.25"
     inkscape:showpageshadow="2"
     inkscape:pageopacity="0.0"
     inkscape:pagecheckerboard="0"
     inkscape:deskcolor="#d1d1d1"
     inkscape:zoom="1.609375"
     inkscape:cx="76.427185"
     inkscape:cy="333.98058"
     inkscape:window-width="3360"
     inkscape:window-height="1718"
     inkscape:window-x="0"
     inkscape:window-y="30"
     inkscape:window-maximized="1"
     inkscape:current-layer="svg31" />
  <path
     fill="#d19718"
     d="m 441.98783,232.68797 6.23,10.19 c 4.22,6.25 8.36,13.83 11.55,18.91 q 28.09,44.79 57.58,92.77 2.8,4.56 3.84,6.64 c 2.44,4.9 2.8,11.46 -1.59,15.34 q -8,7.06 -15.75,12.01 c -23.5,15.04 -47.8,28.18 -73.98,38.29 q -18.84,7.27 -31.1,10.86 c -16.62,4.88 -31.28,8.56 -48.17,10.42 l -11.72,0.64 -128.95001,0.18 q -5.8,-0.79 -11.87,-0.04 -2.97,0.03 -5.84,0.04 -35.74,0.06 -72.42,0.06 c -22.349997,0 -41.079997,0.55 -64.339993,0.5 -17.84,-0.04 -34.15,-8.93 -41.02,-25.5 -4.9500005,-11.94 -3.37,-25.44 2.17,-37.98 q 0.83,-1.87 8.39,-14.1 7.77,-12.57 34.14,-55.37 17.059996,-27.68 34.499996,-56.25 4.83,-7.92 9.749997,-15.82 a 1.42,1.4 60 0 0 0.2,-0.76 l -0.03,-0.8 q 0.45,0.09 0.86,-0.5 3.19,-4.62 5.96,-9.54 5.7,-9.43 11.52,-18.81 5.68,-9.16 11.24,-18.42 c 8.13,-13.54 16.79,-26.89 23.47,-38.3 9.72,-16.61 18.55,-30.26 29.58,-48.71 q 8.48,-14.180003 12.95,-21.060003 c 6.11,-9.41 11.12,-18.5 17.13,-28.14 q 11.29,-18.12 25.05,-40.89 4.92,-8.15 14.4,-13.37 14.01001,-7.72 29.38001,-3.93 9.56,2.36 17.37,9.59 4.78,4.42 12.02,16.04 c 17.1,27.44 34.02,55 57.5,92.790003 q 1.12,1.79 5.97,9.61 32.86,53.05 61.56,99.54 0.14,0.24 1.11,2.02 0.65,1.2 1.36,1.85 z m -127.16,207.13 q 5.84,2.06 10.75,2.25 c 14.61,0.57 30.76,-0.8 45.55,-4.31 16.05,-3.8 33.79,-9.56 48.51,-14.91 q 4.37,-1.59 6.55,-2.51 c 5.65,-2.39 10.81,-3.62 16.37,-6.18 10.52,-4.86 18.73,-8.16 27.61,-13.34 3.77,-2.21 9.12,-4.9 13.49,-8 q 2.41,-1.7 4.16,-2.67 c 8.35,-4.58 16.46,-8.7 23.26,-14.85 q 2.76,-2.49 4.11,-5.24 a 1.49,1.49 0 0 0 0.1,-1.1 q -0.94,-3.15 -3.38,-3.15 -9.52,-14.75 -18,-28.88 -1.82,-3.03 -5.43,-8.43 c -4.24,-6.32 -7.93,-13.36 -12.67,-20.22 q -4.33,-6.28 -6.02,-9.26 c -2.77,-4.88 -6.69,-12.36 -11.16,-18.32 q -1.86,-2.48 -4.09,-6.63 -4.41,-8.19 -10.56,-17.14 c -1.15,-1.68 -2.76,-5.24 -4.27,-7.43 q -3.71,-5.34 -5.42,-8.76 -2.58,-5.12 -5.32,-8.87 -4.71,-6.46 -9.74,-15.15 -5.6,-9.68 -8.57,-14.01 c -5.83,-8.51 -10.57,-17.92 -16.49,-26.39 q -1.44,-2.07 -5.73,-9.37 -3.57,-6.09 -9.29,-14.8 c -4.31,-6.57 -7.63,-12.99 -11.65,-18.65 -3.07,-4.31 -4.93,-8.78 -7.72,-12.38 q -2.15,-2.78 -5.72,-9.45 -2.25,-4.21 -5.84,-9.5 c -4.69,-6.930003 -9.19,-15.060003 -13,-21.580003 -2.08,-3.56 -4.56,-6.8 -6.45,-10.2 q -2.03,-3.65 -4.73,-7.75 -6.96,-10.55 -17.23,-26.97 -3.78,-6.06 -7.08,-12.19 a 5.02,5.12 9.5 0 0 -0.67,-0.96 q -8.05,-8.94 -19.29,-10.86 -3.91,-0.66 -7.28,-0.27 c -8.71001,1.01 -13.99001,4.26 -20.88001,11.11 -2.27,2.27 -3.39,5.24 -5.28,7.89 q -1.43,1.99 -3.64,6.15 c -3.4,6.38 -8.24,13.03 -11.56,18.93 -7.99,14.21 -15.15,23.98 -22.96,37.65 q -4.13,7.250003 -10.2,16.480003 c -3.38,5.15 -6.02,10.41 -9.51,15.8 -7.16,11.09 -15.05,25.02 -20.59,33.57 -3.89,5.99 -6.48,11.55 -10.7,17.71 -5.13,7.49 -10.89,18.14 -14.94,24.55 q -13.54,21.47 -29.63,48.38 -14.889997,24.88 -24.529997,39.45 c -1.62,2.45 -3.47,6.38 -5.21,9.13 q -7.81,12.37 -14.75,24.22 -2.589996,4.41 -7.059996,11.37 c -7.1,11.05 -12.81,21 -19.37,31.41 -4.75,7.52 -9.24,15.84 -13.1,21.72 -6.34,9.65 -8.83,19.01 -5.66,29.74 3.82,12.95 15.56,22.03 28.81,23.87 q 2.38,0.33 6.96,0.12 c 6.85,-0.33 10.369996,-0.07 17.689996,-0.15 q 5.56,-0.05 10.72,0.09 c 16.769997,0.48 33.779997,0.21 49.619997,0.04 q 17.52,-0.18 36.51,0.08 17.08,0.22 66.99,-0.4 14.94,-0.19 57.46001,0.47 c 5.86,0.09 11.43,-0.37 17.15,-0.95 z"
     id="path22" />
  <path
     fill="#fed431"
     d="m 511.90783,365.80797 q -6.6,-0.39 -13.82,-2.75 -17.21,-5.61 -25.79,-9.21 -9.52,-3.99 -24.24,-9.52 c -3.43,-1.29 -7.54,-2.34 -11.85,-3.59 -7.16,-2.07 -14.11,-2.47 -20.88,0.52 -6.86,3.03 -14.13,14.49 -16.97,20.82 q -8.91,19.86 -15.19,32.05 c -11.3,21.94 -30.33,36.07 -54.05,42.47 q -4.9,1.32 -14.29,3.22 c -5.72,0.58 -11.29,1.04 -17.15,0.95 q -42.52001,-0.66 -57.46001,-0.47 -49.91,0.62 -66.99,0.4 -18.99,-0.26 -36.51,-0.08 c -15.84,0.17 -32.85,0.44 -49.619997,-0.04 q -5.16,-0.14 -10.72,-0.09 c -7.32,0.08 -10.839996,-0.18 -17.689996,0.15 q -4.58,0.21 -6.96,-0.12 c -13.25,-1.84 -24.99,-10.92 -28.81,-23.87 -3.17,-10.73 -0.68,-20.09 5.66,-29.74 3.86,-5.88 8.35,-14.2 13.1,-21.72 6.56,-10.41 12.27,-20.36 19.37,-31.41 q 4.47,-6.96 7.059996,-11.37 6.94,-11.85 14.75,-24.22 c 1.74,-2.75 3.59,-6.68 5.21,-9.13 q 9.64,-14.57 24.529997,-39.45 16.09,-26.91 29.63,-48.38 c 4.05,-6.41 9.81,-17.06 14.94,-24.55 4.22,-6.16 6.81,-11.72 10.7,-17.71 5.54,-8.55 13.43,-22.48 20.59,-33.57 3.49,-5.39 6.13,-10.65 9.51,-15.8 q 6.07,-9.23 10.2,-16.480003 c 7.81,-13.67 14.97,-23.44 22.96,-37.65 3.32,-5.9 8.16,-12.55 11.56,-18.93 q 2.21,-4.16 3.64,-6.15 c 1.89,-2.65 3.01,-5.62 5.28,-7.89 6.89,-6.85 12.17,-10.1 20.88001,-11.11 q 3.37,-0.39 7.28,0.27 11.24,1.92 19.29,10.86 a 5.02,5.12 9.5 0 1 0.67,0.96 q 3.3,6.13 7.08,12.19 10.27,16.42 17.23,26.97 2.7,4.1 4.73,7.75 c 1.89,3.4 4.37,6.64 6.45,10.2 3.81,6.52 8.31,14.65 13,21.580003 q 3.59,5.29 5.84,9.5 3.57,6.67 5.72,9.45 c 2.79,3.6 4.65,8.07 7.72,12.38 4.02,5.66 7.34,12.08 11.65,18.65 q 5.72,8.71 9.29,14.8 4.29,7.3 5.73,9.37 c 5.92,8.47 10.66,17.88 16.49,26.39 q 2.97,4.33 8.57,14.01 5.03,8.69 9.74,15.15 2.74,3.75 5.32,8.87 1.71,3.42 5.42,8.76 c 1.51,2.19 3.12,5.75 4.27,7.43 q 6.15,8.95 10.56,17.14 2.23,4.15 4.09,6.63 c 4.47,5.96 8.39,13.44 11.16,18.32 q 1.69,2.98 6.02,9.26 c 4.74,6.86 8.43,13.9 12.67,20.22 q 3.61,5.4 5.43,8.43 8.48,14.13 18,28.88 z m -305.34381,-173.724 a 25.75,25.47 84.8 0 0 -23.0314,27.9524 25.75,25.47 84.8 0 0 27.699,23.3356 25.75,25.47 84.8 0 0 23.0314,-27.9524 25.75,25.47 84.8 0 0 -27.699,-23.3356 z m 161.29381,25.694 a 25.63,25.63 0 0 0 -25.63,-25.63 25.63,25.63 0 0 0 -25.63,25.63 25.63,25.63 0 0 0 25.63,25.63 25.63,25.63 0 0 0 25.63,-25.63 z m -119.62001,30.41 q -2.5,0.14 -3.8,1.8 c -4.23,5.36 0.01,12.27 4.08,16.4 q 14.8,14.97 36.86001,11.04 10.22,-1.82 17.79,-9.26 c 3.44,-3.38 8.47,-10.47 6.9,-15.43 -1.37,-4.36 -5.71,-5.69 -9.4,-3.4 q -1.07,0.66 -2.22,4.14 -1.96,5.95 -8.96,9.28 -11.31,5.39 -22.77001,0.95 -8.72,-3.38 -11.46,-10.04 c -1.55,-3.77 -3.21,-5.69 -7.02,-5.48 z"
     id="path23" />
  <path
     fill="#5b4237"
     d="m 448.21783,242.87797 -6.23,-10.19 c 32.56,-12.99 50.36,-44.26 59.85,-76.2 a 1.05,1.05 0 0 0 -0.32,-1.09 q -5.64,-4.87 -11.18,-10.77 c -2.8,-3 -6.22,-6.87 -6.12,-11.13 q 0.12,-4.78 4.71,-5.55 c 7.06,-1.18 10.47,4.8 13.94,9.95 a 0.67,0.67 0 0 0 1.22,-0.3 c 0.91,-7.38 0.7,-15.42 4.23,-22 2.33,-4.33 8.21,-5.46 11.1,-0.85 2.22,3.56 1.84,6.58 1.87,11.05 a 0.57,0.56 65.4 0 0 0.99,0.37 q 4.96,-5.67 11.22,-7.57 c 2.93,-0.89 6.99,0.01 7.51,3.88 0.8,5.93 -3.04,10.52 -6.6,15.03 a 0.67,0.67 0 0 0 0.59,1.08 c 2.96,-0.29 9.11,-1.39 12.97,-0.19 4.82,1.51 4.82,6.8 1.73,10.01 q -2.33,2.42 -6.56,3.95 c -8.35,3.04 -17.85,4.28 -27.05,5.66 -2.14,0.33 -3.03,1.16 -3.72,3.34 q -7.64,24.11 -16.85,38.9 -1.83,2.94 -7.29,10.5 -4.09,5.68 -8.05,9.89 -13.53,14.42 -31.96,22.23 z"
     id="path24" />
  <path
     fill="#5b4237"
     d="m 110.37782,232.87797 q -2.77,4.92 -5.96,9.54 -0.41,0.59 -0.86,0.5 -22.299997,-10.07 -36.779993,-28.02 -16.03,-19.9 -24.22,-44.77 -1.77,-5.35 -3.33,-10.75 a 1.36,1.36 0 0 0 -0.97,-0.93 c -1.52,-0.39 -4.19,-1.02 -6.08,-1.24 q -8.6,-0.99 -16.05,-2.74 c -5.2,-1.22 -11.8500005,-3.03 -14.7600005,-7.25 -3.26,-4.75 -0.35,-9.08 5.11,-9.21 q 4.8500005,-0.11 10.9700005,0.49 a 0.59,0.59 0 0 0 0.52,-0.96 q -3.25,-4.11 -4.74,-6.32 c -2.92,-4.33 -4.5100005,-13.54 3.79,-12.88 5.12,0.42 9.34,4.37 12.86,7.7 a 0.56,0.56 0 0 0 0.94,-0.39 c 0.14,-4.59 0.1,-12.89 5.93,-13.7 10.79,-1.5 10.3,19.17 11.3,25.4 a 0.6,0.6 0 0 0 1.07,0.27 c 3.58,-4.61 9.07,-12.61 15.91,-9.07 2.879996,1.49 3.039996,5.72 2.11,8.38 q -0.9,2.59 -3.97,6.23 -5.09,6.02 -12.22,12.32 a 1.31,1.32 61.4 0 0 -0.4,1.35 c 6.94,24.85 19.229996,46.97 39.099996,63.93 q 9.18,7.83 20.729997,12.12 z"
     id="path25" />
  <path
     fill="#5b4237"
     d="m 206.56402,192.08397 a 25.75,25.47 84.8 0 1 27.699,23.3356 25.75,25.47 84.8 0 1 -23.0314,27.9524 25.75,25.47 84.8 0 1 -27.699,-23.3356 25.75,25.47 84.8 0 1 23.0314,-27.9524 z m 3.5324,13.3815 a 6.87,6.72 24.9 0 0 3.402,8.9878 6.87,6.72 24.9 0 0 9.0608,-3.2028 6.87,6.72 24.9 0 0 -3.402,-8.9878 6.87,6.72 24.9 0 0 -9.0608,3.2028 z"
     id="path26" />
  <path
     fill="#5b4237"
     d="m 367.85783,217.77797 a 25.63,25.63 0 0 1 -25.63,25.63 25.63,25.63 0 0 1 -25.63,-25.63 25.63,25.63 0 0 1 25.63,-25.63 25.63,25.63 0 0 1 25.63,25.63 z m -11.33,-9.47 a 6.78,6.78 0 0 0 -6.78,-6.78 6.78,6.78 0 0 0 -6.78,6.78 6.78,6.78 0 0 0 6.78,6.78 6.78,6.78 0 0 0 6.78,-6.78 z"
     id="path27" />
  <ellipse
     fill="#fef8f5"
     cx="-283.94501"
     cy="-97.908081"
     transform="rotate(-155.1)"
     rx="6.8699999"
     ry="6.7199998"
     id="ellipse27" />
  <circle
     fill="#fef8f5"
     cx="349.74786"
     cy="208.30794"
     r="6.7800002"
     id="circle27" />
  <path
     fill="#5b4237"
     d="m 248.23782,248.18797 c 3.81,-0.21 5.47,1.71 7.02,5.48 q 2.74,6.66 11.46,10.04 11.46001,4.44 22.77001,-0.95 7,-3.33 8.96,-9.28 1.15,-3.48 2.22,-4.14 c 3.69,-2.29 8.03,-0.96 9.4,3.4 1.57,4.96 -3.46,12.05 -6.9,15.43 q -7.57,7.44 -17.79,9.26 -22.06001,3.93 -36.86001,-11.04 c -4.07,-4.13 -8.31,-11.04 -4.08,-16.4 q 1.3,-1.66 3.8,-1.8 z"
     id="path28" />
  <path
     fill="#ebb00b"
     d="m 511.90783,365.80797 q 2.44,0 3.38,3.15 a 1.49,1.49 0 0 1 -0.1,1.1 q -1.35,2.75 -4.11,5.24 c -6.8,6.15 -14.91,10.27 -23.26,14.85 q -1.75,0.97 -4.16,2.67 c -4.37,3.1 -9.72,5.79 -13.49,8 -8.88,5.18 -17.09,8.48 -27.61,13.34 -5.56,2.56 -10.72,3.79 -16.37,6.18 q -2.18,0.92 -6.55,2.51 c -14.72,5.35 -32.46,11.11 -48.51,14.91 -14.79,3.51 -30.94,4.88 -45.55,4.31 q -4.91,-0.19 -10.75,-2.25 9.39,-1.9 14.29,-3.22 c 23.72,-6.4 42.75,-20.53 54.05,-42.47 q 6.28,-12.19 15.19,-32.05 c 2.84,-6.33 10.11,-17.79 16.97,-20.82 6.77,-2.99 13.72,-2.59 20.88,-0.52 4.31,1.25 8.42,2.3 11.85,3.59 q 14.72,5.53 24.24,9.52 8.58,3.6 25.79,9.21 7.22,2.36 13.82,2.75 z"
     id="path29" />
  <path
     fill="#5b4237"
     d="m 350.59783,448.11797 q 3.56,45.24 -4.59,89.98 a 0.87,0.87 0 0 0 0.78,1.02 q 15.73,1.17 30.25,7.93 3.31,1.55 4.28,4.39 c 2.22,6.53 -3.92,7.94 -8.97,7.91 q -18.25,-0.13 -35.2,-5.25 c -5.24,-1.59 -5.52,-5.2 -4.25,-10.27 q 3.5,-13.87 5.24,-33.14 2.92,-32.19 0.74,-61.93 z"
     id="path30" />
  <path
     fill="#5b4237"
     d="m 209.92782,448.93797 q -2.86,39.52 2.9,78.2 0.43,2.86 3.92,19.31 1.24,5.85 -4.91,7.74 -15.1,4.63 -31.81,5.13 c -3.18,0.1 -10.48,0.07 -11.97,-3.22 -2.85,-6.26 4.73,-9.96 9.67,-11.68 q 12.06,-4.2 25.3,-5.33 a 0.37,0.37 0 0 0 0.33,-0.43 q -4.4,-22.6 -5.69,-45.46 -1.06,-18.7 0.39,-44.3 6.07,-0.75 11.87,0.04 z"
     id="path31" />
</svg>
