<?xml version="1.0" encoding="UTF-8" standalone="no"?>
<svg
   version="1.1"
   viewBox="0 0 510.92728 546.16608"
   id="svg71"
   sodipodi:docname="sad delta.svg"
   width="510.92728"
   height="546.16608"
   inkscape:version="1.3 (0e150ed, 2023-07-21)"
   xmlns:inkscape="http://www.inkscape.org/namespaces/inkscape"
   xmlns:sodipodi="http://sodipodi.sourceforge.net/DTD/sodipodi-0.dtd"
   xmlns="http://www.w3.org/2000/svg"
   xmlns:svg="http://www.w3.org/2000/svg">
  <defs
     id="defs71" />
  <sodipodi:namedview
     id="namedview71"
     pagecolor="#ffffff"
     bordercolor="#000000"
     borderopacity="0.25"
     inkscape:showpageshadow="2"
     inkscape:pageopacity="0.0"
     inkscape:pagecheckerboard="0"
     inkscape:deskcolor="#d1d1d1"
     inkscape:zoom="1.138"
     inkscape:cx="278.55888"
     inkscape:cy="65.465731"
     inkscape:window-width="1912"
     inkscape:window-height="1718"
     inkscape:window-x="1454"
     inkscape:window-y="30"
     inkscape:window-maximized="0"
     inkscape:current-layer="svg71" />
  <path
     fill="#d18b02"
     d="m 461.00594,283.08104 q -3.77,-3.12 -6.38,-3.11 -4.07,0.02 -4.64,4.72 -4.69,-6.03 -5.93,-8.45 -5.59,-10.89 -10.75,-18.55 c -6.05,-8.97 -10.79,-17.39 -18.08,-28.81 q -4.22,-6.61 -8.43,-14.09 c -4.92,-8.76 -10.15,-15.66 -14.94,-24.02 q -8.07,-14.12 -18.59,-29.47 -2.28,-3.34 -4.64,-7.36 c -4.25,-7.27 -7.23,-12.61 -11.13,-18.66 q -4.23,-6.55 -11.26,-17.95 c -3.13,-5.06 -5.89,-8.75 -8.26,-12.92 -5.48,-9.659999 -11.62,-18.829999 -17.47,-28.699999 -7.79,-13.13 -16.66,-26.64 -24.35,-39.17 -1.32,-2.14 -2.93,-4.18 -4.5,-6.25 q -0.32,-0.43 -2.67,-5.04 -1.55,-3.03 -3.87,-4.57 -6.43,-6.78 -15.17,-9.12 -6.08,-1.6399999 -11.67,-0.49 -6.47,1.34 -10.99,4.21 -2.55,1.62 -8.45,7.68 a 4.11,4.25 77 0 0 -0.92,1.42 c -1.61,4.06 -4.7,7.42 -6.89,11.16 q -4.22,7.22 -8.92,14.45 c -2.06,3.17 -3.25,6.23 -5.33,9.05 q -1.33,1.81 -4.13,6.72 -4.28,7.51 -12.17,19.59 c -6.55,10.05 -10.67,18.429999 -17.44,28.629999 q -4.02,6.06 -10.56,17.47 c -1.18,2.05 -3.41,4.81 -4.98,7.37 -5.37,8.74 -11.47,19.62 -18.61,30.85 -3.63,5.71 -7.89,13.51 -12.12,19.87 -3.89,5.84 -7.22,12.22 -10.75,17.81 -4.66,7.36 -8.65,13.34 -12.79,20.7 q -5.03,8.97 -12.57,20.27 -2.870001,4.31 -7.530001,12.92 -6.75,12.47 -15.03,23.91 -1.8,-8.13 -10.49,-2.12 10.08,-16.68 19.87,-32.72 17.570001,-28.79 35.410001,-57.65 8.05,-13.03 18.01,-29.48 c 7.94,-13.12 16,-25.8 24.1,-39.22 q 8.72,-14.46 21.75,-35.699999 23.05,-37.59 29.44,-47.88 5.99,-9.64 9.79,-16.11 5.59,-9.49 8.83,-12.54 c 14.3,-13.4899999 34.11,-15.8899999 50.9,-4.3499999 5.82,3.9899999 9.38,8.0299999 13.44,14.4199999 q 1.64,2.58 19.34,31.19 30.37,49.069999 59.82,96.649999 24.07,38.86 50.38,81.38 3.16,5.1 6.27,10.1 12.94,20.81 26.05,41.96 z"
     id="path52"
     style="display:inline;fill:#d19718;fill-opacity:1" />
  <path
     fill="#3f2717"
     d="m 212.80594,199.96104 q 10.83,8.87 9.81,22.41 c -0.82,11.01 -8.28,20.03 -18.72,22.41 -16.3,3.71 -31.43,-7.79 -31.54,-24.77 a 1.01,1.02 4.8 0 0 -0.83,-0.99 c -2.94,-0.55 -3.39,-5.22 -0.68,-6.58 q 8.98,-4.48 21.75,-11.13 10.69,-5.56 18.86,-10.93 c 2.88,-1.9 6.93,0.01 6.27,4.03 a 2.07,2.09 68.8 0 1 -0.41,0.92 q -1.85,2.32 -4.39,3.55 a 0.64,0.65 51.2 0 0 -0.12,1.08 z m -1.21,12.55 a 6.78,6.78 0 0 0 -6.78,-6.78 6.78,6.78 0 0 0 -6.78,6.78 6.78,6.78 0 0 0 6.78,6.78 6.78,6.78 0 0 0 6.78,-6.78 z"
     id="path55"
     style="fill:#5b4237;fill-opacity:1" />
  <path
     fill="#3f2717"
     d="m 355.63594,219.75104 q -0.01,0.01 -0.33,4.25 c -0.49,6.37 -3.82,12.05 -8.8,15.98 -9.71,7.66 -24.27,7.29 -33.21,-1.36 q -10.2,-9.85 -7.28,-23.9 1.94,-9.34 10.09,-14.63 a 0.74,0.74 0 0 0 -0.06,-1.28 c -2.61,-1.36 -4.72,-2.21 -4.95,-5.54 a 2.13,2.13 0 0 1 0.22,-1.1 c 2.82,-5.56 7.67,-0.07 10.67,1.67 5.2,3.02 11.24,5.34 16.19,8.52 3.03,1.95 6.67,3.35 9.85,5.21 q 6.83,4.01 9.48,5.44 c 2.92,1.57 2.09,6.19 -1.04,6.19 a 0.88,0.89 11.7 0 0 -0.83,0.55 z m -14.12,-6.45 -7.64,-4.6 a 2.08,2.08 0 0 0 -2.85,0.7 l -0.27,0.46 a 6.42,6.31 31.1 0 0 2.23,8.72 l 0.21,0.12 a 6.42,6.31 31.1 0 0 8.76,-2.09 l 0.27,-0.45 a 2.08,2.08 0 0 0 -0.71,-2.86 z"
     id="path56"
     style="fill:#5b4237;fill-opacity:1" />
  <circle
     fill="#fef8f4"
     cx="204.81595"
     cy="212.51103"
     r="6.7800002"
     id="circle56" />
  <path
     fill="#fef8f4"
     d="m 341.51594,213.30104 a 2.08,2.08 0 0 1 0.71,2.86 l -0.27,0.45 a 6.42,6.31 31.1 0 1 -8.76,2.09 l -0.21,-0.12 a 6.42,6.31 31.1 0 1 -2.23,-8.72 l 0.27,-0.46 a 2.08,2.08 0 0 1 2.85,-0.7 z"
     id="path57" />
  <path
     fill="#7c3f0c"
     d="m 263.76594,248.48104 c 11.56,0.01 21.61,6.97 27.06,16.96 1.28,2.34 2.14,5.9 -0.4,7.69 q -3.27,2.29 -6.33,0.07 a 2.46,2.5 2.4 0 1 -0.67,-0.74 q -2.51,-4.36 -2.6,-4.53 c -3.31,-5.94 -10.08,-9.95 -17.07,-9.96 -6.99,-0.01 -13.77,3.98 -17.1,9.92 q -0.09,0.16 -2.61,4.52 a 2.5,2.46 87.7 0 1 -0.67,0.74 q -3.07,2.21 -6.33,-0.09 c -2.54,-1.8 -1.67,-5.35 -0.38,-7.7 5.47,-9.97 15.54,-16.9 27.1,-16.88 z"
     id="path58"
     style="fill:#5b4237;fill-opacity:1" />
  <path
     fill="#7c3f0c"
     d="m 461.00594,283.08104 1.59,2.73 q 2.04,6.61 5.96,12.56 a 5.84,5.74 18 0 1 0.62,1.19 q 3.46,8.8 6.95,17.59 3.42,8.63 5.37,19.58 1.27,4.69 5.02,19.78 0.89,3.57 0.89,5.99 l 2.85,17.3 0.61,9.73 q 1.2,2.57 2.96,5.41 2.18,3.52 3.08,5.35 c 3.82,7.74 6.63,12.53 8.54,19.54 1.22,4.47 1.03,10.4 -5.7,8.65 -4.1,-1.07 -7.16,-9.94 -8.62,-12.89 a 0.45,0.45 0 0 0 -0.85,0.2 q -0.05,6.45 -1.05,15.48 -0.42,3.79 -1.51,5.37 c -2.23,3.23 -6.56,3.21 -9.05,-0.05 q -1.1,-1.45 -0.93,-4.97 0.52,-10.79 1.08,-16.72 a 0.27,0.27 0 0 0 -0.48,-0.2 c -3.01,3.78 -5.56,7.85 -10.21,9.37 -2.95,0.96 -5.83,-0.76 -6.37,-3.75 -0.34,-1.82 0.74,-4.29 2.12,-6.02 q 2.8,-3.5 5.6,-8.05 a 6.31,6.13 83.5 0 1 0.81,-1.05 q 4.12,-4.38 7.73,-9.82 1.51,-0.64 2.58,-2.43 a 1.49,1.46 59.9 0 0 0.21,-0.83 l -0.16,-4.5 q -0.94,-15.57 -4.06,-30.78 c -1.42,-6.04 -2.29,-12.72 -3.91,-18.18 -4.55,-15.26 -9.31,-29.02 -15.68,-41.64 q -2.07,-4.1 -7.01,-12.33 0.57,-4.7 4.64,-4.72 2.61,-0.01 6.38,3.11 z"
     id="path59"
     style="fill:#5b4237;fill-opacity:1" />
  <path
     fill="#7c3f0c"
     d="m 78.095939,285.15104 q -10.99,18.4 -17.29,39.04 -4.73,13.8 -6.26,21.63 -3.82,19.62 -4.9,39.74 a 0.92,0.89 23.1 0 0 0.3,0.71 q 10.1,9.31 18.53,21.02 c 1.24,1.73 0.54,5.3 -1.45,6.66 -4.97,3.4 -11.19,-4.01 -13.71,-7.69 a 0.61,0.61 0 0 0 -1.11,0.44 q 0.99,6.47 1.78,12.65 0.53,4.16 -0.17,7.7 c -0.75,3.84 -5.07,6.55 -8.49,3.63 q -1.52,-1.3 -2.22,-5.16 -1.2,-6.6 -1.84,-16.22 a 0.6,0.6 0 0 0 -1.14,-0.21 q -2.03,4.48 -4.6,10.71 c -0.88,2.13 -3.36,4.61 -6.03,4.37 -6.6,-0.57 -4.22,-8.8 -2.61,-13.02 q 3.97,-10.37 9.99,-21.22 c 0.8,-1.42 2.07,-2.38 2.73,-3.77 a 2.39,2.46 57.1 0 0 0.22,-0.96 q 0.25,-15.52 3.2,-30.46 l 4.41,-20.22 q 1.98,-9.16 5.69,-18.36 4.8,-11.92 9.64,-24.42 l 4.84,-8.71 q 8.69,-6.01 10.49,2.12 z"
     id="path60"
     style="fill:#5b4237;fill-opacity:1" />
  <path
     fill="#d18b02"
     d="m 490.86594,389.53104 -0.61,-9.73 q 7.6,-2.67 12.77,-8.9 a 1.95,1.95 0 0 0 0.22,-2.17 q -1.33,-2.49 -2.63,-3 -8.32,-12.54 -13.56,-21.99 -2.41,-4.37 -5.56,-7.01 -1.95,-10.95 -5.37,-19.58 -3.49,-8.79 -6.95,-17.59 a 5.84,5.74 18 0 0 -0.62,-1.19 q -3.92,-5.95 -5.96,-12.56 22.64,35.63 44.91,71.31 3.17,5.08 3.41,10.76 0.22,5.18 -3.83,8.47 -7.5,6.12 -15.59,11.4 -0.3,0.2 -0.63,1.78 z"
     id="path61"
     style="fill:#d19718;fill-opacity:1" />
  <path
     fill="#d18b02"
     d="m 47.435939,334.52104 q -5.76,8.51 -8.44,13.24 c -1.34,2.34 -2.74,5.84 -4.45,8.62 q -9.26,15.03 -18.39,30.04 c -8.1899996,13.46 -8.5699996,27.16 0.54,40.24 q 1.42,2.24 3.99,4.42 9.76,8.24 22.7,8.34 c 20.95,0.16 40.17,0.13 62.860001,0.31 q 10.91,0.09 28.33,-0.33 c 8.08,-0.2 16.35,0.51 24.89,0.42 q 55.02,-0.58 109.67,-0.06 c 7.42,0.07 17.29,-0.38 25.95,-0.21 q 6.43,-0.22 14.87,0.47 11.13,0.92 25.6,0.77 3.53,-0.03 10.7,-1.76 a 21.29,20.74 35.3 0 1 3.35,-0.53 q 5.26,-0.43 7.32,-1.08 6.15,-1.94 13.45,-3.55 c 4.4,-0.97 8.28,-2.84 12.46,-3.8 q 4.26,-0.97 9.34,-2.89 c 3.86,-1.46 10.73,-3.32 17.51,-6.06 q 1.25,-0.5 4.1,-1.15 a 7.26,7.62 27.3 0 0 1.53,-0.53 q 3.53,-1.7 10.52,-4.4 c 8.22,-3.16 15.63,-6.71 24.86,-10.98 4.17,-1.94 6.73,-4.16 10.86,-6.05 q 2.51,-1.15 10.39,-6.34 1.97,-1.3 8.7,-4.05 l 0.16,4.5 a 1.49,1.46 59.9 0 1 -0.21,0.83 q -1.07,1.79 -2.58,2.43 -12.8,7.84 -20.95,12.17 -6.45,3.43 -16.77,8.47 c -12.22,5.97 -24.5,10.38 -36.98,15.01 q -31.64,11.74 -63.44,16.02 -4.64,0.62 -10.9,0.41 l -9.65,0.05 a 0.44,0.43 20.3 0 0 -0.33,0.15 q -0.08,0.1 -0.19,0.23 -0.09,-0.18 -0.25,-0.3 -0.13,-0.1 -0.37,-0.1 -56.77,-0.01 -113.48,-0.1 -4.61,-0.97 -9.24,-0.13 -1.07,0.19 -0.97,1.08 0.07,-0.76 -0.35,-0.77 -0.55,0 -58.25,-0.15 -28.8,-0.08 -91.600001,0.41 -8.01,0.06 -11.73,-0.88 c -17.81,-4.49 -30.9599996,-17.16 -32.39999961,-35.99 q -0.74,-9.69 1.82000001,-18.57 1.59,-5.52 9.1399996,-17.66 3.87,-6.23 10.31,-17.08 6.23,-10.48 39.37,-63.62 0.85,-1.36 1.96,-2.29 -4.84,12.5 -9.64,24.42 -3.71,9.2 -5.69,18.36 z"
     id="path62"
     style="display:inline;fill:#d19718;fill-opacity:1" />
  <path
     fill="#fde787"
     d="m 500.61594,365.73104 q -6.88,-0.23 -13.21,-3.23 0,-2.42 -0.89,-5.99 -3.75,-15.09 -5.02,-19.78 3.15,2.64 5.56,7.01 5.24,9.45 13.56,21.99 z"
     id="path66"
     style="fill:#fed82f;fill-opacity:1" />
  <path
     fill="#efae06"
     d="m 410.22594,338.12104 q 5.85,-0.24 7.39,0.08 9.39,1.95 16.07,4.43 15.59,5.79 20.67,8.01 12.23,5.31 17.96,7.32 1.4,0.59 2.82,0.83 1.03,0.17 1.29,-0.44 0.23,-0.52 0.16,-1.51 3.12,15.21 4.06,30.78 -6.73,2.75 -8.7,4.05 -7.88,5.19 -10.39,6.34 c -4.13,1.89 -6.69,4.11 -10.86,6.05 -9.23,4.27 -16.64,7.82 -24.86,10.98 q -6.99,2.7 -10.52,4.4 a 7.26,7.62 27.3 0 1 -1.53,0.53 q -2.85,0.65 -4.1,1.15 c -6.78,2.74 -13.65,4.6 -17.51,6.06 q -5.08,1.92 -9.34,2.89 c -4.18,0.96 -8.06,2.83 -12.46,3.8 q -7.3,1.61 -13.45,3.55 -2.06,0.65 -7.32,1.08 a 21.29,20.74 35.3 0 0 -3.35,0.53 q -7.17,1.73 -10.7,1.76 -14.47,0.15 -25.6,-0.77 -8.44,-0.69 -14.87,-0.47 l 14.03,-1.93 a 3.39,4.23 38.7 0 0 0.54,-0.12 c 4.82,-1.48 11.04,-2.64 16.09,-4.62 10.95,-4.28 21.48,-9.85 29.69,-18.2 6.1,-6.2 9.74,-10.11 13.7,-17.14 l 3.55,-7.4 q 6.56,-13.46 12.86,-27.03 c 3.24,-6.97 6.63,-12.51 11.23,-17.87 q 5.1,-5.92 13.45,-7.12 z"
     id="path67"
     style="display:inline;fill:#ebb00b;fill-opacity:1" />
  <path
     fill="#efae06"
     d="m 500.61594,365.73104 q 1.3,0.51 2.63,3 a 1.95,1.95 0 0 1 -0.22,2.17 q -5.17,6.23 -12.77,8.9 l -2.85,-17.3 q 6.33,3 13.21,3.23 z"
     id="path68" />
  <path
     id="path69"
     style="display:inline;fill:#fed431;fill-opacity:1"
     d="m 372.11594,388.35104 q 0.09,0.9 0.57,1.79 l -3.55,7.4 q -0.4,-4.7 2.98,-9.19 z m 100.2,-30.39 q -5.73,-2.01 -17.96,-7.32 -5.08,-2.22 -20.67,-8.01 -6.68,-2.48 -16.07,-4.43 -1.54,-0.32 -7.39,-0.08 4.39,-0.03 3.81,-1.56 7.28,0.55 14.5,3 14.66,4.98 27.57,10.43 3.78,1.6 8.82,3.31 4.55,1.55 8.64,3.86 a 0.29,0.28 53.1 0 1 -0.07,0.53 z m -58.28,-21.4 q 0.58,1.53 -3.81,1.56 -8.35,1.2 -13.45,7.12 c -4.6,5.36 -7.99,10.9 -11.23,17.87 q -6.3,13.57 -12.86,27.03 -0.48,-0.89 -0.57,-1.79 7.15,-14.95 13.89,-30.09 2.55,-5.74 7.89,-12.34 7.72,-9.56 20.14,-9.36 z m -128.92,-315.879999 q 2.32,1.54 3.87,4.57 2.35,4.61 2.67,5.04 c 1.57,2.07 3.18,4.11 4.5,6.25 7.69,12.53 16.56,26.04 24.35,39.17 5.85,9.87 11.99,19.04 17.47,28.699999 2.37,4.17 5.13,7.86 8.26,12.92 q 7.03,11.4 11.26,17.95 c 3.9,6.05 6.88,11.39 11.13,18.66 q 2.36,4.02 4.64,7.36 10.52,15.35 18.59,29.47 c 4.79,8.36 10.02,15.26 14.94,24.02 q 4.21,7.48 8.43,14.09 c 7.29,11.42 12.03,19.84 18.08,28.81 q 5.16,7.66 10.75,18.55 1.24,2.42 5.93,8.45 4.94,8.23 7.01,12.33 c 6.37,12.62 11.13,26.38 15.68,41.64 1.62,5.46 2.49,12.14 3.91,18.18 q 0.07,0.99 -0.16,1.51 -0.26,0.61 -1.29,0.44 -1.42,-0.24 -2.82,-0.83 l 1.18,-0.27 a 0.29,0.28 53.1 0 0 0.07,-0.53 q -4.09,-2.31 -8.64,-3.86 -5.04,-1.71 -8.82,-3.31 -12.91,-5.45 -27.57,-10.43 -7.22,-2.45 -14.5,-3 -12.42,-0.2 -20.14,9.36 -5.34,6.6 -7.89,12.34 -6.74,15.14 -13.89,30.09 -3.38,4.49 -2.98,9.19 c -3.96,7.03 -7.6,10.94 -13.7,17.14 -8.21,8.35 -18.74,13.92 -29.69,18.2 -5.05,1.98 -11.27,3.14 -16.09,4.62 a 3.39,4.23 38.7 0 1 -0.54,0.12 l -14.03,1.93 c -8.66,-0.17 -18.53,0.28 -25.95,0.21 q -54.65,-0.52 -109.67,0.06 c -8.54,0.09 -16.81,-0.62 -24.89,-0.42 q -17.42,0.42 -28.33,0.33 c -22.690001,-0.18 -41.910001,-0.15 -62.860001,-0.31 q -12.94,-0.1 -22.7,-8.34 -2.57,-2.18 -3.99,-4.42 l 0.44,0.05 a 0.67,0.67 0 0 0 0.6,-1.08 q -3.21,-3.98 -4.44,-8.69 a 2.08,1.86 41.8 0 1 -0.05,-0.44 v -9.6 a 2.85,2.6 54.9 0 1 0.09,-0.7 q 2.04,-7.55 5.08,-12.59 5.63,-9.33 6.31,-10.7 1,-2.04 6.46,-10.6 3.65,-5.72 7.09,-13.04 0.9,-1.93 4.75,-4.53 -2.95,14.94 -3.2,30.46 a 2.39,2.46 57.1 0 1 -0.22,0.96 c -0.66,1.39 -1.93,2.35 -2.73,3.77 q -6.02,10.85 -9.99,21.22 c -1.61,4.22 -3.99,12.45 2.61,13.02 2.67,0.24 5.15,-2.24 6.03,-4.37 q 2.57,-6.23 4.6,-10.71 a 0.6,0.6 0 0 1 1.14,0.21 q 0.64,9.62 1.84,16.22 0.7,3.86 2.22,5.16 c 3.42,2.92 7.74,0.21 8.49,-3.63 q 0.7,-3.54 0.17,-7.7 -0.79,-6.18 -1.78,-12.65 a 0.61,0.61 0 0 1 1.11,-0.44 c 2.52,3.68 8.74,11.09 13.71,7.69 1.99,-1.36 2.69,-4.93 1.45,-6.66 q -8.43,-11.71 -18.53,-21.02 a 0.92,0.89 23.1 0 1 -0.3,-0.71 q 1.08,-20.12 4.9,-39.74 1.53,-7.83 6.26,-21.63 1.01,-0.15 1.68,-0.79 a 1.51,1.53 75.4 0 0 0.41,-0.69 q 0.47,-1.65 0.86,-2.22 4.18,-6.12 9.97,-14.51 a 2.91,2.79 73.5 0 0 0.31,-0.6 q 1.2,-3.16 5.26,-9.56 1.54,-2.43 9.88,-18.09 c 3.17,-5.95 6.61,-10.6 9.27,-15.34 1.610001,-2.87 4.790001,-6.25 6.320001,-8.62 q 5.71,-8.88 9.5,-16.81 a 7.51,7.36 77.3 0 1 0.91,-1.47 q 5.55,-7.01 9.75,-15.7 a 22.29,22.89 75.5 0 1 2.21,-3.64 q 3.08,-4.12 6.42,-9.91 c 1.65,-2.87 4.29,-5.28 5.89,-8.03 q 4.52,-7.79 8.23,-15.79 0.53,-1.14 3.58,-5.41 c 2.94,-4.11 5.07,-8.65 7.82,-12.28 q 2.8,-3.68 4.2,-6.9 0.99,-2.3 5.02,-8.18 1.89,-2.77 4.83,-8.26 4.73,-8.84 10.28,-16.49 3.23,-4.46 3.89,-5.99 c 0.98,-2.26 2.82,-5.88 4.58,-8.35 q 3.85,-5.43 7.28,-11.219999 a 3.85,3.78 83.1 0 1 0.6,-0.78 q 1.96,-1.97 3.27,-4.68 c 1.87,-3.86 3.52,-5.65 6.84,-10.05 a 3.39,3.52 72.6 0 0 0.46,-0.84 q 0.91,-2.39 1.05,-2.64 0.76,-1.34 8.14,-13.36 0.76,-1.24 1.65,-4.31 a 3.86,3.95 67.5 0 1 0.36,-0.84 c 1.44,-2.49 3.31,-4.55 4.88,-6.99 q 11.55,-17.96 17.25,-28.18 c 2.66,-4.76 7.44,-7.79 13.02,-10.01 q 14.71,-5.85 28.44,4.02 z m -72.31,179.279999 a 0.64,0.65 51.2 0 1 0.12,-1.08 q 2.54,-1.23 4.39,-3.55 a 2.07,2.09 68.8 0 0 0.41,-0.92 c 0.66,-4.02 -3.39,-5.93 -6.27,-4.03 q -8.17,5.37 -18.86,10.93 -12.77,6.65 -21.75,11.13 c -2.71,1.36 -2.26,6.03 0.68,6.58 a 1.01,1.02 4.8 0 1 0.83,0.99 c 0.11,16.98 15.24,28.48 31.54,24.77 10.44,-2.38 17.9,-11.4 18.72,-22.41 q 1.02,-13.54 -9.81,-22.41 z m 143.66,19.24 c 3.13,0 3.96,-4.62 1.04,-6.19 q -2.65,-1.43 -9.48,-5.44 c -3.18,-1.86 -6.82,-3.26 -9.85,-5.21 -4.95,-3.18 -10.99,-5.5 -16.19,-8.52 -3,-1.74 -7.85,-7.23 -10.67,-1.67 a 2.13,2.13 0 0 0 -0.22,1.1 c 0.23,3.33 2.34,4.18 4.95,5.54 a 0.74,0.74 0 0 1 0.06,1.28 q -8.15,5.29 -10.09,14.63 -2.92,14.05 7.28,23.9 c 8.94,8.65 23.5,9.02 33.21,1.36 4.98,-3.93 8.31,-9.61 8.8,-15.98 q 0.32,-4.24 0.33,-4.25 a 0.88,0.89 11.7 0 1 0.83,-0.55 z m -92.71,38.77 c 6.99,0.01 13.76,4.02 17.07,9.96 q 0.09,0.17 2.6,4.53 a 2.46,2.5 2.4 0 0 0.67,0.74 q 3.06,2.22 6.33,-0.07 c 2.54,-1.79 1.68,-5.35 0.4,-7.69 -5.45,-9.99 -15.5,-16.95 -27.06,-16.96 -11.56,-0.02 -21.63,6.91 -27.1,16.88 -1.29,2.35 -2.16,5.9 0.38,7.7 q 3.26,2.3 6.33,0.09 a 2.5,2.46 87.7 0 0 0.67,-0.74 q 2.52,-4.36 2.61,-4.52 c 3.33,-5.94 10.11,-9.93 17.1,-9.92 z m -216.320001,76.55 -4.41,20.22 q -3.85,2.6 -4.75,4.53 -3.44,7.32 -7.09,13.04 -5.46,8.56 -6.46,10.6 -0.68,1.37 -6.31,10.7 -3.04,5.04 -5.08,12.59 a 2.85,2.6 54.9 0 0 -0.09,0.7 v 9.6 a 2.08,1.86 41.8 0 0 0.05,0.44 q 1.23,4.71 4.44,8.69 a 0.67,0.67 0 0 1 -0.6,1.08 l -0.44,-0.05 c -9.1099996,-13.08 -8.7299996,-26.78 -0.54,-40.24 q 9.13,-15.01 18.39,-30.04 c 1.71,-2.78 3.11,-6.28 4.45,-8.62 q 2.68,-4.73 8.44,-13.24 z M 285.11594,20.681041 q -13.73,-9.87 -28.44,-4.02 c -5.58,2.22 -10.36,5.25 -13.02,10.01 q -5.7,10.22 -17.25,28.18 c -1.57,2.44 -3.44,4.5 -4.88,6.99 a 3.86,3.95 67.5 0 0 -0.36,0.84 q -0.89,3.07 -1.65,4.31 -7.38,12.02 -8.14,13.36 -0.14,0.25 -1.05,2.64 a 3.39,3.52 72.6 0 1 -0.46,0.84 c -3.32,4.4 -4.97,6.19 -6.84,10.05 q -1.31,2.71 -3.27,4.68 a 3.85,3.78 83.1 0 0 -0.6,0.78 q -3.43,5.789999 -7.28,11.219999 c -1.76,2.47 -3.6,6.09 -4.58,8.35 q -0.66,1.53 -3.89,5.99 -5.55,7.65 -10.28,16.49 -2.94,5.49 -4.83,8.26 -4.03,5.88 -5.02,8.18 -1.4,3.22 -4.2,6.9 c -2.75,3.63 -4.88,8.17 -7.82,12.28 q -3.05,4.27 -3.58,5.41 -3.71,8 -8.23,15.79 c -1.6,2.75 -4.24,5.16 -5.89,8.03 q -3.34,5.79 -6.42,9.91 a 22.29,22.89 75.5 0 0 -2.21,3.64 q -4.2,8.69 -9.75,15.7 a 7.51,7.36 77.3 0 0 -0.91,1.47 q -3.79,7.93 -9.5,16.81 c -1.53,2.37 -4.71,5.75 -6.320001,8.62 -2.66,4.74 -6.1,9.39 -9.27,15.34 q -8.34,15.66 -9.88,18.09 -4.06,6.4 -5.26,9.56 a 2.91,2.79 73.5 0 1 -0.31,0.6 q -5.79,8.39 -9.97,14.51 -0.39,0.57 -0.86,2.22 a 1.51,1.53 75.4 0 1 -0.41,0.69 q -0.67,0.64 -1.68,0.79 6.3,-20.64 17.29,-39.04 8.28,-11.44 15.03,-23.91 4.66,-8.61 7.530001,-12.92 7.54,-11.3 12.57,-20.27 c 4.14,-7.36 8.13,-13.34 12.79,-20.7 3.53,-5.59 6.86,-11.97 10.75,-17.81 4.23,-6.36 8.49,-14.16 12.12,-19.87 7.14,-11.23 13.24,-22.11 18.61,-30.85 1.57,-2.56 3.8,-5.32 4.98,-7.37 q 6.54,-11.41 10.56,-17.47 c 6.77,-10.2 10.89,-18.579999 17.44,-28.629999 q 7.89,-12.08 12.17,-19.59 2.8,-4.91 4.13,-6.72 c 2.08,-2.82 3.27,-5.88 5.33,-9.05 q 4.7,-7.23 8.92,-14.45 c 2.19,-3.74 5.28,-7.1 6.89,-11.16 a 4.11,4.25 77 0 1 0.92,-1.42 q 5.9,-6.06 8.45,-7.68 4.52,-2.87 10.99,-4.21 5.59,-1.1499999 11.67,0.49 8.74,2.34 15.17,9.12 z" />
  <path
     fill="#7c3f0c"
     d="m 204.70594,447.39104 q -1.46,44.94 5.91,84.75 c 0.88,4.78 -0.35,7.41 -4.98,9.01 -10.15,3.51 -20.59,4.87 -31.48,5.01 q -7.58,0.1 -15.13,-1.78 -1.92,-0.48 -3.26,-2.54 c -2.28,-3.48 -0.61,-7.3 2.75,-9.61 11.56,-7.93 26.1,-9.37 39.92,-7.25 a 0.35,0.35 0 0 0 0.4,-0.4 q -1.8,-11.81 -2.93,-25.43 c -0.19,-2.2 -0.77,-4.84 -0.91,-7.02 q -1.38,-21.87 -0.5,-43.79 -0.1,-0.89 0.97,-1.08 4.63,-0.84 9.24,0.13 z"
     id="path70"
     style="display:inline;fill:#5b4237;fill-opacity:1" />
  <path
     fill="#7c3f0c"
     d="m 328.97594,447.46104 q 0.9,26.36 -0.6,52.22 c -0.45,7.74 -1.75,15.69 -2.59,24.74 a 0.37,0.38 88.1 0 0 0.43,0.4 q 16.34,-2.65 32.11,2.93 c 3.91,1.38 11.16,4.72 12.33,8.86 1.71,5.99 -3.74,8.29 -8.64,8.9 -11.48,1.43 -24,0.22 -36.08,-2.52 -3.48,-0.79 -9.52,-2.21 -11.07,-5.59 -1.07,-2.33 -0.1,-7.47 0.21,-9.84 q 3.42,-26.08 3.53,-43.42 0.12,-18.14 0.2,-36.25 0.11,-0.13 0.19,-0.23 a 0.44,0.43 20.3 0 1 0.33,-0.15 z"
     id="path71"
     style="display:inline;fill:#5b4237;fill-opacity:1" />
</svg>
