<svg xmlns="http://www.w3.org/2000/svg" width="510.927" height="546.166" viewBox="0 0 510.927 546.166">
    <path fill="#d18b02" d="M461.006 283.081q-3.77-3.12-6.38-3.11-4.07.02-4.64 4.72-4.69-6.03-5.93-8.45-5.59-10.89-10.75-18.55c-6.05-8.97-10.79-17.39-18.08-28.81q-4.22-6.61-8.43-14.09c-4.92-8.76-10.15-15.66-14.94-24.02q-8.07-14.12-18.59-29.47-2.28-3.34-4.64-7.36c-4.25-7.27-7.23-12.61-11.13-18.66q-4.23-6.55-11.26-17.95c-3.13-5.06-5.89-8.75-8.26-12.92-5.48-9.66-11.62-18.83-17.47-28.7-7.79-13.13-16.66-26.64-24.35-39.17-1.32-2.14-2.93-4.18-4.5-6.25q-.32-.43-2.67-5.04-1.55-3.03-3.87-4.57-6.43-6.78-15.17-9.12-6.08-1.64-11.67-.49-6.47 1.34-10.99 4.21-2.55 1.62-8.45 7.68a4.11 4.25 77 0 0-.92 1.42c-1.61 4.06-4.7 7.42-6.89 11.16q-4.22 7.22-8.92 14.45c-2.06 3.17-3.25 6.23-5.33 9.05q-1.33 1.81-4.13 6.72-4.28 7.51-12.17 19.59c-6.55 10.05-10.67 18.43-17.44 28.63q-4.02 6.06-10.56 17.47c-1.18 2.05-3.41 4.81-4.98 7.37-5.37 8.74-11.47 19.62-18.61 30.85-3.63 5.71-7.89 13.51-12.12 19.87-3.89 5.84-7.22 12.22-10.75 17.81-4.66 7.36-8.65 13.34-12.79 20.7q-5.03 8.97-12.57 20.27-2.87 4.31-7.53 12.92-6.75 12.47-15.03 23.91-1.8-8.13-10.49-2.12 10.08-16.68 19.87-32.72 17.57-28.79 35.41-57.65 8.05-13.03 18.01-29.48c7.94-13.12 16-25.8 24.1-39.22q8.72-14.46 21.75-35.7 23.05-37.59 29.44-47.88 5.99-9.64 9.79-16.11 5.59-9.49 8.83-12.54c14.3-13.49 34.11-15.89 50.9-4.35 5.82 3.99 9.38 8.03 13.44 14.42q1.64 2.58 19.34 31.19l59.82 96.65q24.07 38.86 50.38 81.38 3.16 5.1 6.27 10.1 12.94 20.81 26.05 41.96" style="display:inline;fill:#d19718;fill-opacity:1"/>
    <path fill="#3f2717" d="M212.806 199.961q10.83 8.87 9.81 22.41c-.82 11.01-8.28 20.03-18.72 22.41-16.3 3.71-31.43-7.79-31.54-24.77a1.01 1.02 4.8 0 0-.83-.99c-2.94-.55-3.39-5.22-.68-6.58q8.98-4.48 21.75-11.13 10.69-5.56 18.86-10.93c2.88-1.9 6.93.01 6.27 4.03a2.07 2.09 68.8 0 1-.41.92q-1.85 2.32-4.39 3.55a.64.65 51.2 0 0-.12 1.08m-1.21 12.55a6.78 6.78 0 0 0-6.78-6.78 6.78 6.78 0 0 0-6.78 6.78 6.78 6.78 0 0 0 6.78 6.78 6.78 6.78 0 0 0 6.78-6.78m144.04 7.24q-.01.01-.33 4.25c-.49 6.37-3.82 12.05-8.8 15.98-9.71 7.66-24.27 7.29-33.21-1.36q-10.2-9.85-7.28-23.9 1.94-9.34 10.09-14.63a.74.74 0 0 0-.06-1.28c-2.61-1.36-4.72-2.21-4.95-5.54a2.13 2.13 0 0 1 .22-1.1c2.82-5.56 7.67-.07 10.67 1.67 5.2 3.02 11.24 5.34 16.19 8.52 3.03 1.95 6.67 3.35 9.85 5.21q6.83 4.01 9.48 5.44c2.92 1.57 2.09 6.19-1.04 6.19a.88.89 11.7 0 0-.83.55m-14.12-6.45-7.64-4.6a2.08 2.08 0 0 0-2.85.7l-.27.46a6.42 6.31 31.1 0 0 2.23 8.72l.21.12a6.42 6.31 31.1 0 0 8.76-2.09l.27-.45a2.08 2.08 0 0 0-.71-2.86" style="fill:#5b4237;fill-opacity:1"/>
    <circle cx="204.816" cy="212.511" r="6.78" fill="#fef8f4"/>
    <path fill="#fef8f4" d="M341.516 213.301a2.08 2.08 0 0 1 .71 2.86l-.27.45a6.42 6.31 31.1 0 1-8.76 2.09l-.21-.12a6.42 6.31 31.1 0 1-2.23-8.72l.27-.46a2.08 2.08 0 0 1 2.85-.7z"/>
    <path fill="#7c3f0c" d="M263.766 248.481c11.56.01 21.61 6.97 27.06 16.96 1.28 2.34 2.14 5.9-.4 7.69q-3.27 2.29-6.33.07a2.46 2.5 2.4 0 1-.67-.74q-2.51-4.36-2.6-4.53c-3.31-5.94-10.08-9.95-17.07-9.96s-13.77 3.98-17.1 9.92q-.09.16-2.61 4.52a2.5 2.46 87.7 0 1-.67.74q-3.07 2.21-6.33-.09c-2.54-1.8-1.67-5.35-.38-7.7 5.47-9.97 15.54-16.9 27.1-16.88m197.24 34.6 1.59 2.73q2.04 6.61 5.96 12.56a5.84 5.74 18 0 1 .62 1.19q3.46 8.8 6.95 17.59 3.42 8.63 5.37 19.58 1.27 4.69 5.02 19.78.89 3.57.89 5.99l2.85 17.3.61 9.73q1.2 2.57 2.96 5.41 2.18 3.52 3.08 5.35c3.82 7.74 6.63 12.53 8.54 19.54 1.22 4.47 1.03 10.4-5.7 8.65-4.1-1.07-7.16-9.94-8.62-12.89a.45.45 0 0 0-.85.2q-.05 6.45-1.05 15.48-.42 3.79-1.51 5.37c-2.23 3.23-6.56 3.21-9.05-.05q-1.1-1.45-.93-4.97.52-10.79 1.08-16.72a.27.27 0 0 0-.48-.2c-3.01 3.78-5.56 7.85-10.21 9.37-2.95.96-5.83-.76-6.37-3.75-.34-1.82.74-4.29 2.12-6.02q2.8-3.5 5.6-8.05a6.31 6.13 83.5 0 1 .81-1.05q4.12-4.38 7.73-9.82 1.51-.64 2.58-2.43a1.49 1.46 59.9 0 0 .21-.83l-.16-4.5q-.94-15.57-4.06-30.78c-1.42-6.04-2.29-12.72-3.91-18.18-4.55-15.26-9.31-29.02-15.68-41.64q-2.07-4.1-7.01-12.33.57-4.7 4.64-4.72 2.61-.01 6.38 3.11m-382.91 2.07q-10.99 18.4-17.29 39.04-4.73 13.8-6.26 21.63-3.82 19.62-4.9 39.74a.92.89 23.1 0 0 .3.71q10.1 9.31 18.53 21.02c1.24 1.73.54 5.3-1.45 6.66-4.97 3.4-11.19-4.01-13.71-7.69a.61.61 0 0 0-1.11.44q.99 6.47 1.78 12.65.53 4.16-.17 7.7c-.75 3.84-5.07 6.55-8.49 3.63q-1.52-1.3-2.22-5.16-1.2-6.6-1.84-16.22a.6.6 0 0 0-1.14-.21q-2.03 4.48-4.6 10.71c-.88 2.13-3.36 4.61-6.03 4.37-6.6-.57-4.22-8.8-2.61-13.02q3.97-10.37 9.99-21.22c.8-1.42 2.07-2.38 2.73-3.77a2.39 2.46 57.1 0 0 .22-.96q.25-15.52 3.2-30.46l4.41-20.22q1.98-9.16 5.69-18.36 4.8-11.92 9.64-24.42l4.84-8.71q8.69-6.01 10.49 2.12" style="fill:#5b4237;fill-opacity:1"/>
    <path fill="#d18b02" d="m490.866 389.531-.61-9.73q7.6-2.67 12.77-8.9a1.95 1.95 0 0 0 .22-2.17q-1.33-2.49-2.63-3-8.32-12.54-13.56-21.99-2.41-4.37-5.56-7.01-1.95-10.95-5.37-19.58-3.49-8.79-6.95-17.59a5.84 5.74 18 0 0-.62-1.19q-3.92-5.95-5.96-12.56 22.64 35.63 44.91 71.31 3.17 5.08 3.41 10.76.22 5.18-3.83 8.47-7.5 6.12-15.59 11.4-.3.2-.63 1.78" style="fill:#d19718;fill-opacity:1"/>
    <path fill="#d18b02" d="M47.436 334.521q-5.76 8.51-8.44 13.24c-1.34 2.34-2.74 5.84-4.45 8.62q-9.26 15.03-18.39 30.04c-8.19 13.46-8.57 27.16.54 40.24q1.42 2.24 3.99 4.42 9.76 8.24 22.7 8.34c20.95.16 40.17.13 62.86.31q10.91.09 28.33-.33c8.08-.2 16.35.51 24.89.42q55.02-.58 109.67-.06c7.42.07 17.29-.38 25.95-.21q6.43-.22 14.87.47 11.13.92 25.6.77 3.53-.03 10.7-1.76a21.29 20.74 35.3 0 1 3.35-.53q5.26-.43 7.32-1.08 6.15-1.94 13.45-3.55c4.4-.97 8.28-2.84 12.46-3.8q4.26-.97 9.34-2.89c3.86-1.46 10.73-3.32 17.51-6.06q1.25-.5 4.1-1.15a7.26 7.62 27.3 0 0 1.53-.53q3.53-1.7 10.52-4.4c8.22-3.16 15.63-6.71 24.86-10.98 4.17-1.94 6.73-4.16 10.86-6.05q2.51-1.15 10.39-6.34 1.97-1.3 8.7-4.05l.16 4.5a1.49 1.46 59.9 0 1-.21.83q-1.07 1.79-2.58 2.43-12.8 7.84-20.95 12.17-6.45 3.43-16.77 8.47c-12.22 5.97-24.5 10.38-36.98 15.01q-31.64 11.74-63.44 16.02-4.64.62-10.9.41l-9.65.05a.44.43 20.3 0 0-.33.15q-.08.1-.19.23-.09-.18-.25-.3-.13-.1-.37-.1-56.77-.01-113.48-.1-4.61-.97-9.24-.13-1.07.19-.97 1.08.07-.76-.35-.77-.55 0-58.25-.15-28.8-.08-91.6.41-8.01.06-11.73-.88c-17.81-4.49-30.96-17.16-32.4-35.99q-.74-9.69 1.82-18.57 1.59-5.52 9.14-17.66 3.87-6.23 10.31-17.08 6.23-10.48 39.37-63.62.85-1.36 1.96-2.29-4.84 12.5-9.64 24.42-3.71 9.2-5.69 18.36" style="display:inline;fill:#d19718;fill-opacity:1"/>
    <path fill="#fde787" d="M500.616 365.731q-6.88-.23-13.21-3.23 0-2.42-.89-5.99-3.75-15.09-5.02-19.78 3.15 2.64 5.56 7.01 5.24 9.45 13.56 21.99" style="fill:#fed82f;fill-opacity:1"/>
    <path fill="#efae06" d="M410.226 338.121q5.85-.24 7.39.08 9.39 1.95 16.07 4.43 15.59 5.79 20.67 8.01 12.23 5.31 17.96 7.32 1.4.59 2.82.83 1.03.17 1.29-.44.23-.52.16-1.51 3.12 15.21 4.06 30.78-6.73 2.75-8.7 4.05-7.88 5.19-10.39 6.34c-4.13 1.89-6.69 4.11-10.86 6.05-9.23 4.27-16.64 7.82-24.86 10.98q-6.99 2.7-10.52 4.4a7.26 7.62 27.3 0 1-1.53.53q-2.85.65-4.1 1.15c-6.78 2.74-13.65 4.6-17.51 6.06q-5.08 1.92-9.34 2.89c-4.18.96-8.06 2.83-12.46 3.8q-7.3 1.61-13.45 3.55-2.06.65-7.32 1.08a21.29 20.74 35.3 0 0-3.35.53q-7.17 1.73-10.7 1.76-14.47.15-25.6-.77-8.44-.69-14.87-.47l14.03-1.93a3.39 4.23 38.7 0 0 .54-.12c4.82-1.48 11.04-2.64 16.09-4.62 10.95-4.28 21.48-9.85 29.69-18.2 6.1-6.2 9.74-10.11 13.7-17.14l3.55-7.4q6.56-13.46 12.86-27.03c3.24-6.97 6.63-12.51 11.23-17.87q5.1-5.92 13.45-7.12" style="display:inline;fill:#ebb00b;fill-opacity:1"/>
    <path fill="#efae06" d="M500.616 365.731q1.3.51 2.63 3a1.95 1.95 0 0 1-.22 2.17q-5.17 6.23-12.77 8.9l-2.85-17.3q6.33 3 13.21 3.23"/>
    <path d="M372.116 388.351q.09.9.57 1.79l-3.55 7.4q-.4-4.7 2.98-9.19m100.2-30.39q-5.73-2.01-17.96-7.32-5.08-2.22-20.67-8.01-6.68-2.48-16.07-4.43-1.54-.32-7.39-.08 4.39-.03 3.81-1.56 7.28.55 14.5 3 14.66 4.98 27.57 10.43 3.78 1.6 8.82 3.31 4.55 1.55 8.64 3.86a.29.28 53.1 0 1-.07.53zm-58.28-21.4q.58 1.53-3.81 1.56-8.35 1.2-13.45 7.12c-4.6 5.36-7.99 10.9-11.23 17.87q-6.3 13.57-12.86 27.03-.48-.89-.57-1.79 7.15-14.95 13.89-30.09 2.55-5.74 7.89-12.34 7.72-9.56 20.14-9.36m-128.92-315.88q2.32 1.54 3.87 4.57 2.35 4.61 2.67 5.04c1.57 2.07 3.18 4.11 4.5 6.25 7.69 12.53 16.56 26.04 24.35 39.17 5.85 9.87 11.99 19.04 17.47 28.7 2.37 4.17 5.13 7.86 8.26 12.92q7.03 11.4 11.26 17.95c3.9 6.05 6.88 11.39 11.13 18.66q2.36 4.02 4.64 7.36 10.52 15.35 18.59 29.47c4.79 8.36 10.02 15.26 14.94 24.02q4.21 7.48 8.43 14.09c7.29 11.42 12.03 19.84 18.08 28.81q5.16 7.66 10.75 18.55 1.24 2.42 5.93 8.45 4.94 8.23 7.01 12.33c6.37 12.62 11.13 26.38 15.68 41.64 1.62 5.46 2.49 12.14 3.91 18.18q.07.99-.16 1.51-.26.61-1.29.44-1.42-.24-2.82-.83l1.18-.27a.29.28 53.1 0 0 .07-.53q-4.09-2.31-8.64-3.86-5.04-1.71-8.82-3.31-12.91-5.45-27.57-10.43-7.22-2.45-14.5-3-12.42-.2-20.14 9.36-5.34 6.6-7.89 12.34-6.74 15.14-13.89 30.09-3.38 4.49-2.98 9.19c-3.96 7.03-7.6 10.94-13.7 17.14-8.21 8.35-18.74 13.92-29.69 18.2-5.05 1.98-11.27 3.14-16.09 4.62a3.39 4.23 38.7 0 1-.54.12l-14.03 1.93c-8.66-.17-18.53.28-25.95.21q-54.65-.52-109.67.06c-8.54.09-16.81-.62-24.89-.42q-17.42.42-28.33.33c-22.69-.18-41.91-.15-62.86-.31q-12.94-.1-22.7-8.34-2.57-2.18-3.99-4.42l.44.05a.67.67 0 0 0 .6-1.08q-3.21-3.98-4.44-8.69a2.08 1.86 41.8 0 1-.05-.44v-9.6a2.85 2.6 54.9 0 1 .09-.7q2.04-7.55 5.08-12.59 5.63-9.33 6.31-10.7 1-2.04 6.46-10.6 3.65-5.72 7.09-13.04.9-1.93 4.75-4.53-2.95 14.94-3.2 30.46a2.39 2.46 57.1 0 1-.22.96c-.66 1.39-1.93 2.35-2.73 3.77q-6.02 10.85-9.99 21.22c-1.61 4.22-3.99 12.45 2.61 13.02 2.67.24 5.15-2.24 6.03-4.37q2.57-6.23 4.6-10.71a.6.6 0 0 1 1.14.21q.64 9.62 1.84 16.22.7 3.86 2.22 5.16c3.42 2.92 7.74.21 8.49-3.63q.7-3.54.17-7.7-.79-6.18-1.78-12.65a.61.61 0 0 1 1.11-.44c2.52 3.68 8.74 11.09 13.71 7.69 1.99-1.36 2.69-4.93 1.45-6.66q-8.43-11.71-18.53-21.02a.92.89 23.1 0 1-.3-.71q1.08-20.12 4.9-39.74 1.53-7.83 6.26-21.63 1.01-.15 1.68-.79a1.51 1.53 75.4 0 0 .41-.69q.47-1.65.86-2.22 4.18-6.12 9.97-14.51a2.91 2.79 73.5 0 0 .31-.6q1.2-3.16 5.26-9.56 1.54-2.43 9.88-18.09c3.17-5.95 6.61-10.6 9.27-15.34 1.61-2.87 4.79-6.25 6.32-8.62q5.71-8.88 9.5-16.81a7.51 7.36 77.3 0 1 .91-1.47q5.55-7.01 9.75-15.7a22.29 22.89 75.5 0 1 2.21-3.64q3.08-4.12 6.42-9.91c1.65-2.87 4.29-5.28 5.89-8.03q4.52-7.79 8.23-15.79.53-1.14 3.58-5.41c2.94-4.11 5.07-8.65 7.82-12.28q2.8-3.68 4.2-6.9.99-2.3 5.02-8.18 1.89-2.77 4.83-8.26 4.73-8.84 10.28-16.49 3.23-4.46 3.89-5.99c.98-2.26 2.82-5.88 4.58-8.35q3.85-5.43 7.28-11.22a3.85 3.78 83.1 0 1 .6-.78q1.96-1.97 3.27-4.68c1.87-3.86 3.52-5.65 6.84-10.05a3.39 3.52 72.6 0 0 .46-.84q.91-2.39 1.05-2.64.76-1.34 8.14-13.36.76-1.24 1.65-4.31a3.86 3.95 67.5 0 1 .36-.84c1.44-2.49 3.31-4.55 4.88-6.99q11.55-17.96 17.25-28.18c2.66-4.76 7.44-7.79 13.02-10.01q14.71-5.85 28.44 4.02m-72.31 179.28a.64.65 51.2 0 1 .12-1.08q2.54-1.23 4.39-3.55a2.07 2.09 68.8 0 0 .41-.92c.66-4.02-3.39-5.93-6.27-4.03q-8.17 5.37-18.86 10.93-12.77 6.65-21.75 11.13c-2.71 1.36-2.26 6.03.68 6.58a1.01 1.02 4.8 0 1 .83.99c.11 16.98 15.24 28.48 31.54 24.77 10.44-2.38 17.9-11.4 18.72-22.41q1.02-13.54-9.81-22.41m143.66 19.24c3.13 0 3.96-4.62 1.04-6.19q-2.65-1.43-9.48-5.44c-3.18-1.86-6.82-3.26-9.85-5.21-4.95-3.18-10.99-5.5-16.19-8.52-3-1.74-7.85-7.23-10.67-1.67a2.13 2.13 0 0 0-.22 1.1c.23 3.33 2.34 4.18 4.95 5.54a.74.74 0 0 1 .06 1.28q-8.15 5.29-10.09 14.63-2.92 14.05 7.28 23.9c8.94 8.65 23.5 9.02 33.21 1.36 4.98-3.93 8.31-9.61 8.8-15.98q.32-4.24.33-4.25a.88.89 11.7 0 1 .83-.55m-92.71 38.77c6.99.01 13.76 4.02 17.07 9.96q.09.17 2.6 4.53a2.46 2.5 2.4 0 0 .67.74q3.06 2.22 6.33-.07c2.54-1.79 1.68-5.35.4-7.69-5.45-9.99-15.5-16.95-27.06-16.96-11.56-.02-21.63 6.91-27.1 16.88-1.29 2.35-2.16 5.9.38 7.7q3.26 2.3 6.33.09a2.5 2.46 87.7 0 0 .67-.74q2.52-4.36 2.61-4.52c3.33-5.94 10.11-9.93 17.1-9.92m-216.32 76.55-4.41 20.22q-3.85 2.6-4.75 4.53-3.44 7.32-7.09 13.04-5.46 8.56-6.46 10.6-.68 1.37-6.31 10.7-3.04 5.04-5.08 12.59a2.85 2.6 54.9 0 0-.09.7v9.6a2.08 1.86 41.8 0 0 .05.44q1.23 4.71 4.44 8.69a.67.67 0 0 1-.6 1.08l-.44-.05c-9.11-13.08-8.73-26.78-.54-40.24q9.13-15.01 18.39-30.04c1.71-2.78 3.11-6.28 4.45-8.62q2.68-4.73 8.44-13.24m237.68-313.84q-13.73-9.87-28.44-4.02c-5.58 2.22-10.36 5.25-13.02 10.01q-5.7 10.22-17.25 28.18c-1.57 2.44-3.44 4.5-4.88 6.99a3.86 3.95 67.5 0 0-.36.84q-.89 3.07-1.65 4.31-7.38 12.02-8.14 13.36-.14.25-1.05 2.64a3.39 3.52 72.6 0 1-.46.84c-3.32 4.4-4.97 6.19-6.84 10.05q-1.31 2.71-3.27 4.68a3.85 3.78 83.1 0 0-.6.78q-3.43 5.79-7.28 11.22c-1.76 2.47-3.6 6.09-4.58 8.35q-.66 1.53-3.89 5.99-5.55 7.65-10.28 16.49-2.94 5.49-4.83 8.26-4.03 5.88-5.02 8.18-1.4 3.22-4.2 6.9c-2.75 3.63-4.88 8.17-7.82 12.28q-3.05 4.27-3.58 5.41-3.71 8-8.23 15.79c-1.6 2.75-4.24 5.16-5.89 8.03q-3.34 5.79-6.42 9.91a22.29 22.89 75.5 0 0-2.21 3.64q-4.2 8.69-9.75 15.7a7.51 7.36 77.3 0 0-.91 1.47q-3.79 7.93-9.5 16.81c-1.53 2.37-4.71 5.75-6.32 8.62-2.66 4.74-6.1 9.39-9.27 15.34q-8.34 15.66-9.88 18.09-4.06 6.4-5.26 9.56a2.91 2.79 73.5 0 1-.31.6q-5.79 8.39-9.97 14.51-.39.57-.86 2.22a1.51 1.53 75.4 0 1-.41.69q-.67.64-1.68.79 6.3-20.64 17.29-39.04 8.28-11.44 15.03-23.91 4.66-8.61 7.53-12.92 7.54-11.3 12.57-20.27c4.14-7.36 8.13-13.34 12.79-20.7 3.53-5.59 6.86-11.97 10.75-17.81 4.23-6.36 8.49-14.16 12.12-19.87 7.14-11.23 13.24-22.11 18.61-30.85 1.57-2.56 3.8-5.32 4.98-7.37q6.54-11.41 10.56-17.47c6.77-10.2 10.89-18.58 17.44-28.63q7.89-12.08 12.17-19.59 2.8-4.91 4.13-6.72c2.08-2.82 3.27-5.88 5.33-9.05q4.7-7.23 8.92-14.45c2.19-3.74 5.28-7.1 6.89-11.16a4.11 4.25 77 0 1 .92-1.42q5.9-6.06 8.45-7.68 4.52-2.87 10.99-4.21 5.59-1.15 11.67.49 8.74 2.34 15.17 9.12" style="display:inline;fill:#fed431;fill-opacity:1"/>
    <path fill="#7c3f0c" d="M204.706 447.391q-1.46 44.94 5.91 84.75c.88 4.78-.35 7.41-4.98 9.01-10.15 3.51-20.59 4.87-31.48 5.01q-7.58.1-15.13-1.78-1.92-.48-3.26-2.54c-2.28-3.48-.61-7.3 2.75-9.61 11.56-7.93 26.1-9.37 39.92-7.25a.35.35 0 0 0 .4-.4q-1.8-11.81-2.93-25.43c-.19-2.2-.77-4.84-.91-7.02q-1.38-21.87-.5-43.79-.1-.89.97-1.08 4.63-.84 9.24.13m124.27.07q.9 26.36-.6 52.22c-.45 7.74-1.75 15.69-2.59 24.74a.37.38 88.1 0 0 .43.4q16.34-2.65 32.11 2.93c3.91 1.38 11.16 4.72 12.33 8.86 1.71 5.99-3.74 8.29-8.64 8.9-11.48 1.43-24 .22-36.08-2.52-3.48-.79-9.52-2.21-11.07-5.59-1.07-2.33-.1-7.47.21-9.84q3.42-26.08 3.53-43.42.12-18.14.2-36.25.11-.13.19-.23a.44.43 20.3 0 1 .33-.15z" style="display:inline;fill:#5b4237;fill-opacity:1"/>
</svg>
