<svg xmlns="http://www.w3.org/2000/svg" width="491.824" height="441.964" viewBox="0 0 491.824 441.964">
    <path fill="#cf8f26" d="M66.52 271.443q14.33-23.76 28.87-47.46 4.79-7.82 9.19-15.59c3.94-6.98 7.84-12.65 12.6-20.58q43.58-72.59 47.15-78.09c7.21-11.09 12.09-20.32 19.5-32.18 8.23-13.17 16.26-27.29 24.63-40.87q5.63-9.13 7.86-12.99 4.12-7.14 7.72-10.45 7.44-6.85 13.78-9.73c11.47-5.22 25.44-4.57 36.37 1.71q5.26 3.02 11.44 9.13 3.11 3.08 8.16 11.66 6.09 10.34 11.65 18.61c3.62 5.39 7.05 11.86 11.16 18q.98 1.46 4.48 7.22 11.74 19.3 23.23 38.1 12.74 20.83 28.75 46.77 1.6 2.59 3 4.86 20.6 33.28 21.27 34.39c9.21 15.21 19.01 30.3 27.84 45.47 4.56 7.83 8.97 14.42 14.9 24.06q13.08 21.25 18.12 29.3 4.44 7.08 7.2 11.91c3.16 5.55 6.56 10.15 9.91 15.73q3.45 5.74 9.95 16.25c1.89 3.05 3.02 5.66 4.68 8.39 3.38 5.52 1.83 13.38-1.48 18.31-3.29 4.91-7.21 9.18-12.35 12.89q-49.8 35.93-107.86 55.09c-15.94 5.26-31.16 8.96-47.41 10.3q-4.46.37-17.75.3-161.14-.94-256.64-.69-12.48.03-21.79-4.6-19.4-9.66-23.7-30.12c-3.28-15.57 2.32-30.63 10.81-44.15 9.71-15.48 18.14-30.08 25.78-42.53 7.24-11.8 12.33-20.32 16.18-27.01q2.09-3.65 12.8-21.41m412.3 85.03c3.4-1.08 3.56-4.24 1.94-6.84q-9.49-15.23-16.29-26.55-1.85-3.1-2.19-3.71-2.1-3.8-6.71-10.8c-5.91-8.98-8.47-13.45-12.54-20.64-2.67-4.7-5.99-8.99-8.79-13.84q-.25-.45-15.74-26.03c-3.25-5.36-7.22-10.66-10.03-15.88q-1.51-2.81-7.47-12.02-3.38-5.23-8.7-14.48c-2.57-4.47-6.18-9.05-8.83-13.81q-5.09-9.16-9.58-15.94c-3.81-5.75-6.87-11.26-9.97-16.77q-2.85-5.07-7.88-12.3-5.81-8.33-11.49-18.6c-3.26-5.9-5.51-9.12-10.06-16.22-2.98-4.64-5.19-8.99-7.77-12.96q-2.9-4.47-5.36-8.53-12.6-20.84-31.7-51.03c-2.56-4.05-4.81-8.58-7.75-12.65a5.23 4.9 16.5 0 1-.48-.82q-1.57-3.26-2.83-4.33c-2.57-2.2-6.29-5.4-9.5-7.06q-17.46-9.03-33.89 2.72-5.24 3.75-8.28 9.25-2.12 3.84-3.31 5.68-5.34 8.22-10.73 17.53c-5.91 10.23-12.19 19.41-17.56 29.4q-1.16 2.15-9.07 14.42c-3.15 4.89-5.18 9.83-8.1 13.81q-3.29 4.49-6.47 10.1c-3.95 6.97-8.03 14.13-12.39 20.98-3.51 5.51-6.92 11.77-9.85 16.53q-23.58 38.29-32.5 53.48-4.42 7.54-9.88 16.28-5.05 8.07-9.66 16.42c-3.3 5.96-8.62 13.58-11.98 19.43-5.49 9.56-12.23 19.93-16.75 27.9-6.71 11.83-13.23 21.73-20.02 33.33-1.48 2.52-2.36 5.02-4.14 7.34q-.21.28-2.41 3.86c-5.71 9.3-11.86 18.93-17.05 28.35q-5.16 9.36-7.93 13.76-4.76 7.58-5.91 12.58-2.97 12.95 2.29 24.03 5.38 11.36 17.9 16.63c5.28 2.23 14.77 3.05 20.3 3.02q45.2-.2 88.75.45.28.01 21.25-.04 15.89-.03 91.57.45c17.9.12 29.12.24 42.59-2.39q14.59-2.84 27.43-11.01 5.94-3.78 10.79-9.29 6.61-7.53 9.02-11.12 4.46-6.64 15.67-26.92.52-.94 4.12-9.02c6.84-15.39 20.82-24.01 37.86-22.99q9.04.54 13.58 1.96 18.26 5.73 31.94 9.4 3.07.82 9.41 2.78 10.76 3.33 18.65 3.16 3.32-.07 4.48-.44m-176.23 78.78q1.22.23 2.87.12 20.4-1.29 40.1-6.14c4.17-1.03 8.97-3.16 14.11-4.39q3.81-.91 8.33-2.69 10.06-3.97 23.42-9.33c4.31-1.73 7.96-3.8 11.89-5.27q3.72-1.4 8.89-3.98 13.82-6.89 29.39-15.8 5.63-3.22 9.03-5.66c6.2-4.46 11.67-6.98 17.48-11.56q6.47-5.12 7.95-6.65a.53.53 0 0 0-.41-.9c-9.92.45-19.74-1.91-29.04-4.79q-10.75-3.33-21.52-6.82c-6.63-2.16-14.05-3.38-20.06-4.38-12.85-2.15-25.07.83-32 12.69-4.02 6.87-7.53 12.07-10.45 18.37q-6.16 13.32-10.06 19.9-7.68 12.96-21.56 23.93-5.32 4.21-10.79 6.66-8.95 4-17.58 6.18a.26.26 0 0 0 .01.51" style="display:inline"/>
    <path fill="#fed443" d="M480.76 349.633c1.62 2.6 1.46 5.76-1.94 6.84q-1.16.37-4.48.44-7.89.17-18.65-3.16-6.34-1.96-9.41-2.78-13.68-3.67-31.94-9.4-4.54-1.42-13.58-1.96c-17.04-1.02-31.02 7.6-37.86 22.99q-3.6 8.08-4.12 9.02-11.21 20.28-15.67 26.92-2.41 3.59-9.02 11.12-4.85 5.51-10.79 9.29-12.84 8.17-27.43 11.01c-13.47 2.63-24.69 2.51-42.59 2.39q-75.68-.48-91.57-.45-20.97.05-21.25.04-43.55-.65-88.75-.45c-5.53.03-15.02-.79-20.3-3.02q-12.52-5.27-17.9-16.63-5.26-11.08-2.29-24.03 1.15-5 5.91-12.58 2.77-4.4 7.93-13.76c5.19-9.42 11.34-19.05 17.05-28.35q2.2-3.58 2.41-3.86c1.78-2.32 2.66-4.82 4.14-7.34 6.79-11.6 13.31-21.5 20.02-33.33 4.52-7.97 11.26-18.34 16.75-27.9 3.36-5.85 8.68-13.47 11.98-19.43q4.61-8.35 9.66-16.42 5.46-8.74 9.88-16.28 8.92-15.19 32.5-53.48c2.93-4.76 6.34-11.02 9.85-16.53 4.36-6.85 8.44-14.01 12.39-20.98q3.18-5.61 6.47-10.1c2.92-3.98 4.95-8.92 8.1-13.81q7.91-12.27 9.07-14.42c5.37-9.99 11.65-19.17 17.56-29.4q5.39-9.31 10.73-17.53 1.19-1.84 3.31-5.68 3.04-5.5 8.28-9.25 16.43-11.75 33.89-2.72c3.21 1.66 6.93 4.86 9.5 7.06q1.26 1.07 2.83 4.33a5.23 4.9 16.5 0 0 .48.82c2.94 4.07 5.19 8.6 7.75 12.65q19.1 30.19 31.7 51.03 2.46 4.06 5.36 8.53c2.58 3.97 4.79 8.32 7.77 12.96 4.55 7.1 6.8 10.32 10.06 16.22q5.68 10.27 11.49 18.6 5.03 7.23 7.88 12.3c3.1 5.51 6.16 11.02 9.97 16.77q4.49 6.78 9.58 15.94c2.65 4.76 6.26 9.34 8.83 13.81q5.32 9.25 8.7 14.48 5.96 9.21 7.47 12.02c2.81 5.22 6.78 10.52 10.03 15.88q15.49 25.58 15.74 26.03c2.8 4.85 6.12 9.14 8.79 13.84 4.07 7.19 6.63 11.66 12.54 20.64q4.61 7 6.71 10.8.34.61 2.19 3.71 6.8 11.32 16.29 26.55" style="display:inline"/>
    <path fill="#fed443" d="M302.59 435.253a.26.26 0 0 1-.01-.51q8.63-2.18 17.58-6.18 5.47-2.45 10.79-6.66 13.88-10.97 21.56-23.93 3.9-6.58 10.06-19.9c2.92-6.3 6.43-11.5 10.45-18.37 6.93-11.86 19.15-14.84 32-12.69 6.01 1 13.43 2.22 20.06 4.38q10.77 3.49 21.52 6.82c9.3 2.88 19.12 5.24 29.04 4.79a.53.53 0 0 1 .41.9q-1.48 1.53-7.95 6.65c-5.81 4.58-11.28 7.1-17.48 11.56q-3.4 2.44-9.03 5.66-15.57 8.91-29.39 15.8-5.17 2.58-8.89 3.98c-3.93 1.47-7.58 3.54-11.89 5.27q-13.36 5.36-23.42 9.33-4.52 1.78-8.33 2.69c-5.14 1.23-9.94 3.36-14.11 4.39q-19.7 4.85-40.1 6.14-1.65.11-2.87-.12" style="display:inline"/>
</svg>
